<?xml version="1.0" standalone="no"?>
<!DOCTYPE svg PUBLIC "-//W3C//DTD SVG 20010904//EN"
 "http://www.w3.org/TR/2001/REC-SVG-20010904/DTD/svg10.dtd">
<svg version="1.0" xmlns="http://www.w3.org/2000/svg"
 width="5312.000000pt" height="3854.000000pt" viewBox="0 0 5312.000000 3854.000000"
 preserveAspectRatio="xMidYMid meet">

<g transform="translate(0.000000,3854.000000) scale(0.100000,-0.100000)"
fill="#000000" stroke="none">
<path d="M14820 37390 c-91 -23 -189 -81 -303 -178 -74 -63 -109 -72 -285 -72
-100 0 -151 -4 -185 -16 -70 -24 -131 -83 -174 -171 -33 -67 -37 -84 -37 -147
2 -188 176 -397 435 -521 72 -34 174 -63 185 -52 3 3 -16 34 -44 69 -27 34
-63 84 -81 110 l-31 47 31 -11 c53 -18 159 -5 234 31 77 36 175 103 252 173
l53 48 40 -25 c38 -24 39 -24 45 -4 10 30 63 88 98 105 39 21 90 11 116 -22
33 -41 37 -105 12 -181 -12 -36 -20 -67 -19 -68 2 -1 61 -46 132 -100 146
-112 137 -111 177 -6 40 106 51 187 46 331 -7 217 -54 326 -212 486 -74 75
-105 98 -177 134 -81 40 -94 43 -180 46 -51 2 -109 -1 -128 -6z"/>
<path d="M15746 36285 c-42 -15 -146 -83 -146 -95 0 -4 11 -15 25 -24 24 -16
28 -15 75 9 27 14 53 25 58 25 13 0 49 -87 67 -162 8 -35 15 -103 15 -153 0
-152 -38 -251 -131 -344 -71 -71 -154 -113 -234 -119 -55 -4 -64 -1 -109 30
-61 41 -105 112 -152 242 l-35 99 27 28 26 28 -22 35 c-12 20 -25 36 -29 36
-10 0 -87 -82 -100 -107 -20 -40 -12 -101 30 -216 59 -160 94 -223 166 -293
47 -46 71 -81 98 -140 l36 -79 -14 -535 c-9 -294 -16 -598 -16 -675 -1 -77 -4
-203 -7 -280 l-5 -140 47 55 c68 79 210 216 244 237 21 12 30 25 30 43 0 51
13 53 75 15 79 -47 238 -108 382 -146 88 -23 148 -32 239 -36 201 -9 180 -24
287 195 144 293 206 427 351 765 156 365 186 471 186 665 0 123 -15 205 -59
317 -75 196 -243 396 -395 471 -77 38 -84 39 -181 39 -93 0 -105 -2 -167 -33
-121 -59 -185 -154 -297 -436 -85 -213 -220 -633 -326 -1011 -20 -71 -40 -135
-44 -142 -5 -11 -153 614 -151 642 0 6 17 56 38 111 36 99 39 102 102 150 119
90 209 229 246 379 51 204 -5 504 -102 550 -39 18 -77 19 -128 0z"/>
<path d="M14961 35624 c-91 -97 -165 -210 -334 -506 -235 -410 -637 -1175
-637 -1210 0 -28 98 -154 181 -232 162 -152 390 -293 535 -330 85 -22 103 -20
128 11 109 136 507 651 516 669 11 19 5 39 -43 150 -31 71 -81 183 -112 249
-178 376 -237 539 -266 736 -25 170 8 368 81 483 17 26 29 50 27 53 -2 2 -37
-31 -76 -73z"/>
<path d="M32183 34726 c0 -9 8 -13 23 -10 27 5 40 -12 24 -31 -14 -17 -5 -35
17 -35 12 0 13 3 4 13 -8 10 -7 17 1 25 14 14 -7 36 -43 45 -18 5 -26 3 -26
-7z"/>
<path d="M46975 34713 c-339 -49 -644 -409 -946 -1114 -33 -78 -71 -163 -83
-188 -30 -57 -117 -141 -182 -174 -98 -50 -152 -58 -434 -67 -291 -9 -326 -15
-448 -75 -216 -107 -363 -380 -366 -680 -1 -143 11 -179 94 -270 46 -51 51
-61 46 -89 -44 -215 -22 -386 71 -546 53 -91 224 -260 343 -339 88 -58 397
-219 403 -210 2 2 18 87 36 188 70 387 171 789 258 1031 155 429 390 719 677
839 41 17 79 31 85 31 5 0 12 -26 16 -57 28 -252 108 -493 219 -662 30 -45 50
-81 45 -81 -4 0 -95 41 -201 92 -166 80 -201 93 -255 96 -53 4 -71 0 -125 -25
-114 -54 -204 -176 -243 -328 -19 -75 -19 -233 0 -305 38 -142 147 -282 276
-354 116 -64 376 -162 659 -250 339 -104 859 -206 896 -175 47 39 105 148 146
274 25 77 36 302 19 400 -19 107 -36 140 -79 153 -82 25 -392 137 -392 142 0
4 17 12 38 20 90 32 152 99 167 181 10 52 -19 249 -66 454 -30 130 -43 211
-46 291 l-5 112 25 -5 c25 -5 26 -4 17 28 -14 47 -14 46 28 68 65 33 140 98
168 146 36 62 43 152 19 241 -17 65 -17 66 3 108 41 82 56 170 56 336 0 140
-3 164 -28 245 -78 257 -195 383 -427 458 -122 40 -393 74 -484 60z m816 -961
c-17 -262 -57 -420 -124 -490 -52 -54 -123 -60 -218 -20 l-36 16 -12 -94 c-6
-51 -11 -97 -11 -103 0 -5 19 -11 43 -13 50 -4 49 -2 68 -198 6 -69 27 -199
46 -290 71 -341 72 -358 26 -404 -34 -35 -111 -51 -238 -50 -130 1 -191 20
-282 89 -182 138 -297 407 -357 843 l-6 42 83 0 84 0 13 58 c18 81 64 208 127
351 l55 125 -36 29 c-45 36 -76 94 -76 141 0 72 96 109 185 72 18 -8 35 -11
37 -6 2 5 68 13 146 19 224 16 364 61 441 141 l36 38 8 -61 c5 -37 4 -133 -2
-235z"/>
<path d="M32205 34700 c-3 -5 -2 -10 4 -10 5 0 13 5 16 10 3 6 2 10 -4 10 -5
0 -13 -4 -16 -10z"/>
<path d="M32294 34701 c4 -5 1 -11 -6 -13 -12 -4 -3 -28 11 -28 4 0 13 11 19
25 10 22 9 25 -9 25 -11 0 -18 -4 -15 -9z"/>
<path d="M32406 34638 c2 -69 2 -68 15 -68 7 0 9 10 5 27 -5 17 -3 29 6 35 9
7 8 8 -5 4 -14 -4 -17 -2 -13 12 3 9 2 23 -3 30 -4 7 -7 -10 -5 -40z"/>
<path d="M32267 34627 c-7 -19 28 -53 38 -38 3 6 3 16 0 21 -3 6 -1 10 4 10 6
0 11 5 11 11 0 8 -4 8 -13 0 -9 -7 -17 -7 -24 0 -7 7 -12 6 -16 -4z m28 -18
c11 -17 -1 -21 -15 -4 -8 9 -8 15 -2 15 6 0 14 -5 17 -11z"/>
<path d="M32430 34610 c0 -6 11 -22 25 -36 14 -14 25 -29 25 -34 0 -6 5 -10
10 -10 15 0 12 8 -17 51 -28 38 -43 49 -43 29z"/>
<path d="M32305 34570 c-3 -5 -1 -10 4 -10 6 0 11 5 11 10 0 6 -2 10 -4 10 -3
0 -8 -4 -11 -10z"/>
<path d="M32396 34544 c-3 -9 -13 -14 -21 -11 -10 4 -12 1 -9 -11 5 -15 4 -15
-9 1 -27 32 -28 17 -1 -18 14 -19 30 -32 35 -29 11 6 12 24 2 23 -21 -3 -22 3
-3 23 11 12 20 25 20 30 0 13 -7 9 -14 -8z"/>
<path d="M32508 34508 c17 -17 15 -33 -2 -19 -11 9 -15 8 -20 -5 -9 -24 -7
-28 7 -16 8 7 18 7 27 2 26 -17 30 -11 12 20 -9 16 -21 30 -26 30 -6 0 -5 -5
2 -12z"/>
<path d="M32410 34445 c8 -11 32 -37 52 -59 21 -21 38 -41 38 -45 1 -10 86
-101 95 -101 5 0 -4 14 -20 30 -16 17 -25 30 -21 30 4 0 -3 11 -16 25 -13 13
-38 40 -57 60 -27 29 -31 39 -20 45 7 5 10 13 5 17 -5 4 -11 2 -13 -4 -3 -9
-12 -8 -31 5 -26 16 -27 16 -12 -3z"/>
<path d="M32560 34428 c0 -10 5 -18 10 -18 6 0 8 -11 4 -27 -9 -37 -12 -39
-27 -23 -9 10 -9 11 1 6 6 -4 12 -2 12 4 0 14 -22 8 -28 -8 -2 -6 6 -19 17
-29 12 -9 21 -25 21 -35 0 -10 5 -18 10 -18 13 0 13 4 -1 33 -9 19 -8 30 5 49
14 22 14 26 -4 53 -14 22 -20 25 -20 13z"/>
<path d="M32611 34355 c0 -13 28 -50 33 -44 3 2 -4 15 -14 29 -11 14 -20 21
-19 15z"/>
<path d="M32590 34334 c1 -13 29 -48 34 -43 2 2 -4 15 -15 28 -10 13 -19 19
-19 15z"/>
<path d="M32650 34293 c0 -7 -12 -16 -26 -19 l-25 -6 21 -23 c14 -15 18 -25
11 -30 -6 -3 -11 -1 -11 4 0 6 -5 11 -11 11 -6 0 4 -19 22 -42 18 -24 34 -45
36 -47 2 -2 6 -2 9 1 3 3 -5 16 -18 28 -21 20 -21 22 -4 18 18 -3 50 -49 52
-75 2 -27 4 -33 13 -33 5 0 4 19 -1 43 -11 44 -43 87 -64 87 -9 0 -10 6 -1 25
14 30 31 33 24 4 -3 -12 -3 -19 0 -16 9 9 54 -50 56 -73 1 -11 7 -20 14 -20
19 0 18 2 -34 82 -65 98 -63 95 -63 81z m4 -37 c-6 -16 -24 -13 -24 5 0 6 5 7
10 4 6 -3 10 -1 10 6 0 7 2 10 5 7 3 -3 3 -13 -1 -22z"/>
<path d="M32764 34089 c-1 -26 1 -28 13 -17 7 8 11 22 7 31 -10 26 -19 20 -20
-14z"/>
<path d="M51673 34108 c-4 -7 -10 -168 -11 -356 l-4 -344 -56 6 c-32 3 -208 8
-392 11 -184 3 -402 8 -485 10 -82 3 -163 1 -180 -4 -25 -8 -26 -9 -7 -10 19
-1 22 -6 22 -40 0 -22 -4 -41 -9 -43 -8 -3 -15 -58 -12 -95 1 -9 13 -11 36 -8
19 2 35 1 35 -4 0 -4 24 -8 53 -9 102 -2 987 -71 998 -77 6 -4 8 -16 5 -28
-10 -41 10 -57 72 -57 32 0 63 5 70 12 16 16 17 999 2 1029 -9 15 -22 19 -70
19 -36 0 -62 -5 -67 -12z m-1080 -685 c-7 -2 -19 -2 -25 0 -7 3 -2 5 12 5 14
0 19 -2 13 -5z m-3 -167 c0 -7 -40 -14 -44 -7 -3 4 6 8 20 9 13 1 24 0 24 -2z"/>
<path d="M32740 34100 c0 -5 5 -10 11 -10 5 0 7 5 4 10 -3 6 -8 10 -11 10 -2
0 -4 -4 -4 -10z"/>
<path d="M32730 34066 c0 -2 7 -9 15 -16 13 -11 14 -10 9 4 -5 14 -24 23 -24
12z"/>
<path d="M32789 34054 c-10 -13 -10 -17 1 -24 9 -6 17 -4 22 3 5 8 8 9 8 1 0
-6 -8 -18 -17 -25 -9 -8 -14 -9 -10 -3 4 7 0 15 -9 18 -25 10 -27 1 -4 -19 11
-10 20 -15 20 -10 0 4 7 2 15 -5 8 -7 12 -17 8 -24 -4 -6 1 -5 10 3 10 8 20
12 22 9 3 -3 -1 -11 -9 -18 -13 -10 -13 -14 -1 -26 18 -19 25 -18 25 4 1 13 4
11 14 -8 8 -14 12 -28 9 -33 -8 -13 28 -60 38 -50 14 14 -1 45 -18 39 -8 -3
-11 -1 -8 4 3 5 -1 23 -10 40 -13 26 -19 29 -31 19 -9 -7 -14 -8 -14 -1 0 6 4
14 10 17 11 7 -37 85 -52 85 -5 0 -6 5 -3 10 10 16 -1 12 -16 -6z m51 -60 c0
-8 -4 -12 -10 -9 -5 3 -10 13 -10 21 0 8 5 12 10 9 6 -3 10 -13 10 -21z m90
-134 c0 -5 -2 -10 -4 -10 -3 0 -8 5 -11 10 -3 6 -1 10 4 10 6 0 11 -4 11 -10z"/>
<path d="M32940 33832 c0 -14 47 -72 53 -66 10 10 -4 34 -16 27 -6 -4 -8 0 -4
9 3 9 0 21 -6 27 -13 13 -27 15 -27 3z"/>
<path d="M49960 33808 c-47 -4 -109 -9 -137 -11 -29 -1 -53 -5 -53 -10 0 -4
-4 -6 -8 -3 -4 2 -14 0 -22 -6 -11 -7 -6 -8 17 -4 19 3 35 1 39 -6 4 -6 3 -8
-4 -5 -5 4 -16 5 -24 2 -17 -7 -13 -186 5 -197 7 -4 -8 -8 -33 -9 -41 -1 -42
-1 -17 -9 16 -5 34 -7 40 -6 7 1 9 1 5 -1 -15 -9 -8 -22 15 -26 12 -3 -5 -4
-38 -4 -33 1 -89 0 -126 -1 l-65 -2 -11 -52 c-6 -29 -9 -55 -7 -57 2 -2 117
-12 256 -22 139 -9 282 -20 318 -23 l65 -6 -7 88 c-3 48 -7 153 -7 235 l-1
147 -57 -1 c-32 -1 -96 -6 -143 -11z m-125 -46 c-3 -3 -11 0 -18 7 -9 10 -8
11 6 5 10 -3 15 -9 12 -12z"/>
<path d="M48297 33744 c-10 -10 -8 -296 2 -312 5 -9 27 -12 71 -10 78 4 78 4
78 163 0 159 0 159 -79 163 -36 2 -68 0 -72 -4z"/>
<path d="M33040 33700 c6 -11 13 -20 16 -20 2 0 0 9 -6 20 -6 11 -13 20 -16
20 -2 0 0 -9 6 -20z"/>
<path d="M15903 33312 c-72 -92 -277 -296 -420 -417 -57 -47 -103 -89 -103
-92 0 -17 414 -812 420 -808 4 3 11 17 14 32 4 16 45 145 91 288 46 143 105
330 133 417 l49 156 -56 245 c-31 135 -59 248 -62 251 -3 3 -33 -29 -66 -72z"/>
<path d="M50380 33256 c0 -2 7 -7 16 -10 8 -3 12 -2 9 4 -6 10 -25 14 -25 6z"/>
<path d="M50430 33250 c-8 -5 -10 -10 -5 -10 6 0 17 5 25 10 8 5 11 10 5 10
-5 0 -17 -5 -25 -10z"/>
<path d="M50490 33239 c0 -5 9 -9 20 -9 11 0 20 2 20 4 0 2 -9 6 -20 9 -11 3
-20 1 -20 -4z"/>
<path d="M11975 32962 c-66 -32 -110 -76 -138 -137 -9 -22 -45 -181 -80 -354
l-62 -314 -52 -18 c-28 -9 -110 -43 -180 -74 l-129 -56 -275 184 c-296 198
-334 216 -427 203 -101 -14 -126 -34 -524 -433 -418 -419 -420 -421 -420 -542
0 -38 6 -82 15 -103 9 -21 97 -159 197 -308 l181 -271 -36 -79 c-19 -43 -51
-120 -70 -170 -18 -51 -36 -94 -38 -96 -2 -3 -152 -34 -333 -70 -349 -69 -384
-80 -438 -145 -15 -17 -37 -50 -49 -73 -22 -41 -22 -46 -25 -589 -2 -359 1
-561 8 -586 16 -61 71 -133 128 -167 44 -27 95 -40 389 -98 l339 -68 23 -66
c12 -36 43 -109 68 -163 l45 -97 -195 -289 c-169 -250 -196 -297 -207 -348
-15 -71 -2 -148 34 -209 14 -23 193 -208 398 -413 388 -387 407 -403 504 -419
23 -3 67 -1 99 6 49 10 99 40 352 210 l294 198 97 -43 c53 -23 124 -52 157
-64 l61 -22 67 -337 c37 -185 70 -347 73 -359 l6 -23 -796 0 c-438 0 -796 3
-796 8 0 6 -1254 6 -1555 -1 -115 -2 -136 -6 -186 -29 -75 -34 -129 -85 -164
-153 -41 -82 -44 -165 -11 -330 90 -455 136 -707 131 -715 -3 -5 -1 -11 4 -14
5 -4 12 -23 15 -44 13 -76 19 -118 20 -139 0 -13 4 -23 7 -23 3 0 12 -35 19
-77 6 -43 14 -85 17 -93 3 -8 6 -26 8 -40 1 -14 8 -52 15 -85 6 -33 10 -80 7
-104 -3 -27 -2 -38 4 -30 6 9 9 0 9 -28 0 -24 5 -43 10 -43 6 0 10 -12 9 -27
0 -17 -3 -22 -6 -13 -4 8 -12 21 -20 28 -11 11 -13 4 -12 -45 1 -32 3 -50 6
-40 2 9 9 17 15 17 14 0 2 -74 -12 -78 -5 -2 -10 -21 -10 -43 0 -28 -4 -39
-15 -39 -11 0 -15 -11 -15 -40 0 -36 -2 -40 -25 -40 -25 0 -25 -1 -25 -80 0
-75 1 -80 21 -80 21 0 22 -3 17 -99 -3 -69 -10 -107 -21 -125 -22 -33 -24
-176 -3 -176 19 0 31 -129 16 -175 -6 -19 -16 -35 -21 -35 -5 0 -9 -7 -9 -15
0 -8 -9 -15 -20 -15 -17 0 -20 -7 -20 -39 0 -33 -4 -40 -22 -44 -23 -4 -23 -4
1 -6 16 -1 21 -6 18 -15 -4 -9 1 -17 11 -19 9 -3 -359 -5 -818 -6 -662 -1
-845 -4 -885 -15 -178 -47 -294 -185 -303 -361 -4 -71 10 -148 123 -719 69
-351 124 -645 121 -652 -3 -8 0 -13 6 -11 7 1 13 -7 16 -18 7 -39 823 -4142
1808 -9085 277 -1394 536 -2692 574 -2885 540 -2713 525 -2641 565 -2723 55
-112 179 -233 295 -289 47 -23 108 -46 135 -53 39 -9 966 -12 4058 -10 2204 0
4007 -1 4007 -4 0 -2 -146 -261 -326 -575 -249 -437 -329 -571 -344 -571 -10
0 -51 7 -90 15 -119 25 -307 45 -475 49 -415 12 -813 -71 -1172 -244 -253
-122 -405 -233 -653 -477 l-166 -162 -48 115 c-106 250 -280 508 -471 698
-135 135 -261 227 -420 306 -216 107 -368 144 -590 145 -130 0 -160 -3 -225
-23 -198 -63 -376 -191 -547 -394 -186 -222 -392 -603 -508 -941 -20 -56 -38
-108 -40 -115 -3 -8 -38 26 -87 85 -120 145 -502 521 -668 659 -203 169 -373
295 -388 289 -7 -3 -11 -1 -8 4 3 5 -21 27 -54 50 -33 23 -60 39 -60 36 0 -4
-7 1 -16 9 -8 9 -21 13 -27 9 -7 -3 -9 -3 -5 2 8 8 -1 16 -57 50 l-30 19 25
-30 c14 -17 10 -14 -10 6 -42 44 -207 143 -222 134 -6 -4 -8 -2 -4 4 6 9 -16
22 -37 22 -4 -1 -15 6 -23 15 -10 10 -25 13 -38 10 -13 -4 -16 -3 -9 2 9 6 -4
17 -41 35 -36 18 -57 23 -64 16 -6 -6 -12 -6 -17 3 -6 8 -4 10 6 4 12 -8 12
-6 0 8 -16 20 -36 23 -25 5 4 -7 -2 -5 -13 4 -23 21 -37 24 -27 6 4 -8 3 -10
-2 -5 -5 5 -9 13 -9 19 0 16 -60 37 -76 26 -10 -7 -9 -8 6 -3 16 5 17 4 8 -6
-10 -10 -16 -9 -29 2 -13 11 -18 11 -21 1 -3 -6 -9 -10 -14 -7 -5 4 -3 12 4
20 8 8 16 10 24 4 7 -6 13 -6 17 -1 3 6 0 12 -7 15 -21 8 -72 2 -72 -8 0 -5
-4 -16 -9 -24 -6 -9 -5 -12 5 -9 19 6 38 -14 31 -32 -5 -13 -3 -13 11 -1 15
12 17 12 11 -3 -3 -9 -1 -17 5 -17 19 -2 25 -5 80 -32 29 -14 58 -24 64 -20 6
3 7 1 3 -5 -4 -7 -1 -12 8 -12 9 0 16 5 16 10 0 6 5 10 11 10 8 0 8 -4 0 -14
-10 -12 -8 -17 9 -26 11 -6 25 -8 30 -5 6 3 10 2 10 -2 0 -5 21 -19 46 -31 43
-21 48 -22 64 -7 14 12 20 13 26 4 4 -7 3 -10 -3 -6 -6 4 -16 0 -23 -7 -9 -12
-7 -17 10 -26 11 -6 26 -8 33 -4 6 4 9 3 4 -1 -7 -8 73 -65 91 -65 4 0 25 -12
47 -27 22 -15 90 -59 150 -98 112 -72 338 -237 387 -283 48 -45 49 -110 2
-157 -20 -20 -35 -25 -73 -25 -43 0 -55 6 -137 68 -204 155 -486 337 -508 329
-7 -3 -19 -1 -27 5 -11 8 -10 9 4 4 38 -12 4 14 -69 53 -51 28 -84 40 -98 36
-16 -5 -17 -4 -7 3 11 8 -7 20 -72 51 -48 23 -89 41 -92 41 -2 0 -34 13 -70
30 -69 31 -98 39 -55 15 15 -9 19 -14 10 -15 -13 0 -15 -185 -12 -1610 l2
-1610 -35 3 c-41 5 -70 34 -53 55 8 9 8 16 -2 25 -10 10 -11 9 -5 -2 6 -11 4
-13 -9 -8 -10 4 -15 3 -11 -3 3 -6 3 -10 0 -10 -11 0 -119 113 -220 230 -55
63 -102 117 -105 120 -16 15 -140 170 -136 170 2 0 -8 13 -22 28 -54 57 -342
442 -342 458 0 3 -5 10 -10 17 -48 58 -208 306 -298 463 -73 127 -218 416
-270 539 -52 125 -110 294 -137 405 l-16 65 -117 67 c-208 118 -458 232 -624
284 -32 10 -58 22 -58 27 0 17 -246 506 -335 667 -242 434 -581 951 -844 1284
-123 156 -274 337 -288 344 -8 5 -14 12 -13 16 2 10 -189 226 -200 226 -6 0
-9 3 -7 8 1 4 -10 20 -24 36 -19 21 -29 25 -34 16 -6 -9 -4 -11 5 -5 9 5 11 4
6 -4 -6 -9 -11 -9 -22 0 -12 9 -12 15 -2 27 9 11 9 14 1 9 -7 -4 -14 1 -18 13
-4 11 -11 17 -17 14 -8 -5 -9 -1 -4 12 4 10 4 15 0 12 -7 -8 -34 16 -34 30 0
21 -27 33 -54 22 -24 -9 -28 -7 -36 15 -5 14 -12 25 -15 25 -8 0 16 -54 32
-72 18 -20 4 -25 -16 -6 -7 7 -12 9 -11 3 2 -5 2 -38 1 -72 l-1 -63 -40 0
c-38 0 -40 -2 -40 -30 0 -28 -2 -30 -40 -30 -22 0 -40 -4 -40 -10 0 -5 -18
-10 -40 -10 -38 0 -40 -2 -40 -30 0 -28 -2 -30 -38 -30 -31 0 -41 5 -52 25
-14 26 -30 29 -38 7 -2 -7 3 -12 12 -12 12 0 16 -10 16 -40 0 -38 -2 -40 -30
-40 -17 0 -30 -5 -30 -13 0 -12 -24 -28 -62 -43 -10 -3 -18 -10 -18 -15 0 -5
-9 -9 -20 -9 -11 0 -20 -7 -20 -15 0 -9 -11 -20 -24 -25 -14 -5 -33 -22 -42
-37 -28 -44 -56 -63 -96 -63 -21 0 -38 -4 -38 -10 0 -5 18 -10 40 -10 22 0 40
-4 40 -10 0 -5 -18 -10 -40 -10 -22 0 -40 -4 -40 -10 0 -5 -18 -10 -40 -10
-38 0 -40 -2 -40 -30 0 -28 -2 -30 -40 -30 -38 0 -40 -2 -40 -30 0 -24 -4 -30
-21 -30 -11 0 -17 -4 -14 -10 3 -5 32 -11 63 -12 l57 -1 -45 -7 c-73 -11 250
-11 385 0 179 15 402 47 563 81 79 17 150 28 157 25 15 -5 143 -164 307 -381
246 -327 496 -711 710 -1095 101 -181 241 -450 237 -454 -2 -2 -56 5 -119 15
-63 11 -128 19 -145 18 -16 -1 -38 2 -49 6 -11 5 -27 3 -38 -4 -12 -7 -17 -8
-13 -2 3 6 -1 11 -9 11 -8 0 -18 -4 -21 -10 -3 -5 -12 -10 -18 -10 -7 0 -6 4
3 10 13 9 13 10 0 10 -9 0 -21 -5 -26 -10 -7 -7 -24 -6 -53 5 -54 19 -68 19
-68 0 0 -10 9 -13 27 -11 17 2 27 -2 27 -11 0 -7 -11 -13 -26 -13 -14 0 -33
-5 -41 -10 -11 -7 0 -10 37 -10 28 0 54 -3 56 -7 3 -5 -16 -6 -41 -4 -26 2
-45 1 -42 -2 3 -3 41 -8 85 -12 154 -12 174 -14 311 -34 145 -22 361 -71 500
-115 92 -29 118 -55 118 -117 1 -49 -26 -86 -73 -100 -33 -10 -48 -8 -102 9
-153 51 -409 104 -559 117 -41 4 -91 8 -110 10 -19 2 -37 0 -40 -4 -3 -5 -25
-11 -50 -14 -25 -2 -35 -2 -22 0 32 6 27 18 -8 21 -17 1 -30 -3 -30 -9 0 -7
-12 -10 -32 -6 -32 5 -32 5 -8 -6 l25 -12 -3 -1438 -2 -1437 7332 2 7333 3 46
27 c49 29 87 73 108 124 14 37 31 144 21 144 -3 0 -7 15 -8 33 -3 32 -2 32 13
10 22 -31 32 -29 30 4 -1 16 0 20 2 11 4 -17 134 -18 2542 -18 1396 0 2566 -3
2600 -6 55 -6 61 -5 61 11 0 22 13 12 15 -13 1 -9 6 -25 10 -35 11 -26 1 -107
-19 -148 -31 -67 -100 -122 -171 -140 -43 -10 5900 -9 5960 1 l50 9 -57 -4
c-32 -2 -60 1 -63 6 -4 5 37 10 97 11 l103 2 -85 6 c-85 6 -85 6 -30 12 36 3
26 4 -30 2 -59 -2 -78 0 -62 6 l22 9 -2 1443 c-2 794 -7 1452 -11 1463 -5 12
-3 11 4 -2 7 -13 16 -23 20 -23 10 0 -7 48 -24 69 -10 12 -8 13 13 7 16 -5 20
-4 12 2 -10 7 -13 31 -10 88 l3 79 -70 -3 c-38 -2 -77 -6 -85 -9 -8 -3 -34 -5
-57 -4 -24 2 -43 -2 -43 -7 0 -6 -8 -8 -19 -5 -50 13 -453 -78 -666 -150 -220
-75 -572 -237 -730 -335 -169 -105 -343 -229 -398 -284 -10 -10 -21 -18 -25
-18 -4 0 -26 -17 -48 -38 -82 -73 -104 -87 -104 -63 0 5 -8 8 -17 6 -10 -1
-17 -8 -15 -15 2 -8 -7 -10 -25 -7 -15 3 -49 9 -75 12 -27 3 -48 12 -49 18 0
7 0 30 1 53 1 24 -4 45 -13 52 -8 7 -64 13 -138 16 -78 2 -125 8 -127 15 -2 6
-16 11 -32 11 -16 0 -28 5 -27 13 0 6 -1 31 -1 55 l-2 42 -120 0 -120 0 0 40
0 40 -50 0 c-27 0 -50 5 -50 10 0 15 -157 13 -164 -2 -3 -7 -2 6 1 30 4 32 2
42 -9 42 -9 0 -14 10 -13 28 l0 27 -67 -4 c-59 -3 -68 -1 -68 14 0 16 -7 17
-66 11 -36 -4 -81 -4 -100 0 -35 6 -35 7 -33 52 2 25 -1 47 -6 49 -6 1 -46 4
-90 5 l-80 3 0 28 c1 15 -5 27 -11 27 -7 0 -14 5 -16 10 -2 6 -55 13 -118 17
-112 6 -150 18 -135 43 3 5 1 10 -4 10 -6 0 -11 18 -11 40 l0 40 -145 0 -145
0 0 59 0 58 -56 6 c-31 3 -59 8 -62 12 -3 3 -5 28 -3 55 l2 50 -141 0 -140 0
0 54 0 54 -87 6 c-161 12 -153 8 -153 71 l0 55 -90 0 -90 0 0 40 c0 22 -4 40
-10 40 -5 0 -10 18 -10 40 l0 40 -120 0 -120 0 0 38 c0 58 -11 66 -51 39 -19
-13 -33 -30 -31 -37 2 -11 -1 -10 -14 1 -16 12 -17 12 -12 -2 4 -10 1 -16 -8
-16 -8 0 -14 5 -14 11 0 8 -3 8 -8 0 -4 -5 -24 -18 -44 -27 -41 -19 -45 -26
-25 -47 10 -12 9 -12 -4 -2 -9 6 -20 8 -24 4 -5 -4 -5 -1 0 6 6 11 3 12 -14 3
-26 -14 -27 -27 -3 -40 9 -6 13 -11 8 -11 -5 0 -17 7 -25 15 -15 12 -20 11
-49 -11 -18 -14 -30 -29 -27 -34 3 -5 0 -12 -6 -16 -8 -4 -9 -3 -5 4 22 35
-43 -4 -176 -108 -102 -79 -382 -358 -466 -463 -76 -96 -187 -253 -233 -329
-19 -32 -37 -58 -41 -58 -3 0 -53 35 -110 78 -698 525 -1733 638 -2565 281
-117 -50 -296 -148 -373 -204 l-44 -33 -152 -483 c-84 -266 -205 -648 -268
-849 -66 -208 -120 -398 -126 -441 -34 -243 97 -435 336 -493 51 -13 -275 -14
-2536 -15 -1773 -1 -2622 2 -2680 10 -101 12 -189 49 -229 95 -56 64 -60 176
-8 301 13 32 167 310 344 618 176 308 604 1058 952 1666 l631 1106 3167 6
c1741 4 5287 7 7878 7 4301 0 4716 1 4766 16 152 45 256 167 280 327 10 74 7
96 -95 607 -40 201 -70 368 -66 373 3 4 132 6 286 5 l279 -3 3 -23 c2 -14 8
-20 15 -15 7 4 6 0 -2 -10 -11 -14 -11 -21 3 -42 9 -14 12 -25 6 -25 -6 0 -6
-9 0 -26 6 -14 8 -29 5 -34 -3 -5 0 -12 6 -15 7 -5 10 5 7 31 l-3 39 83 -3
c77 -3 82 -2 82 17 0 18 -7 21 -42 22 l-43 2 50 7 c28 5 84 9 125 10 54 1 68
4 50 10 -16 5 29 9 120 11 126 2 134 3 65 8 -58 4 -76 9 -65 16 9 6 160 11
389 12 205 1 375 4 377 6 3 2 1365 2 3027 -1 2321 -4 3038 -2 3091 7 170 30
274 141 283 304 4 62 -14 169 -137 797 -77 399 -172 886 -210 1083 -39 196
-102 520 -140 720 -104 532 -136 697 -175 897 -19 99 -51 261 -70 360 -49 253
-68 351 -405 2080 -165 850 -307 1565 -315 1590 -36 110 -142 229 -257 290
-118 63 54 60 -2763 61 -1413 1 -2562 3 -2552 6 14 4 17 11 13 31 -3 15 -8 77
-12 137 -8 133 -25 182 -69 201 -31 12 -32 16 -38 81 -18 190 -19 491 -3 643
38 364 100 1420 136 2325 5 143 12 304 15 358 2 53 0 147 -5 207 l-10 109 134
263 c118 229 233 469 281 585 9 20 17 34 19 32 2 -2 32 -200 66 -439 86 -617
107 -736 134 -797 41 -89 173 -309 326 -543 225 -346 232 -357 912 -1515 585
-994 708 -1206 708 -1212 0 -14 -167 -217 -185 -224 -11 -5 -59 -20 -107 -34
-70 -21 -93 -33 -117 -61 -36 -41 -39 -75 -9 -103 30 -29 68 -34 230 -29 l143
3 125 94 c69 52 180 137 247 188 l123 94 -100 113 c-96 109 -125 131 -179 138
-21 3 -31 18 -63 98 -56 138 -123 342 -146 445 -91 405 -169 713 -353 1405
-217 814 -363 1329 -406 1437 l-25 63 55 213 c125 475 182 746 222 1046 23
176 25 166 -42 166 -54 0 -58 2 -80 34 -30 44 -50 114 -63 216 -19 151 18 292
95 369 52 52 62 102 74 361 12 253 15 995 4 995 -9 0 -149 -57 -848 -346 -439
-181 -492 -205 -512 -234 -13 -18 -23 -41 -23 -51 0 -14 230 -581 387 -956 6
-16 -32 -31 -252 -105 -212 -70 -401 -119 -580 -150 -179 -30 -568 -33 -720
-4 -174 32 -355 100 -465 175 l-45 30 -7 -52 c-20 -145 -128 -1583 -128 -1704
0 -103 41 -303 135 -653 112 -416 137 -523 379 -1615 330 -1490 331 -1494 320
-1504 -5 -5 -135 -43 -289 -84 -267 -73 -281 -78 -312 -111 -50 -54 -40 -98
27 -125 22 -8 18 -10 -26 -10 l-51 -1 -26 133 c-14 72 -54 274 -87 447 -34
173 -64 322 -67 330 -6 16 -12 55 -14 83 0 9 -4 15 -9 12 -4 -3 -6 4 -3 15 4
16 1 18 -17 15 -13 -2 -19 -1 -16 3 4 4 13 7 19 7 7 0 11 11 9 25 -6 55 -35
186 -42 195 -4 6 -6 20 -4 33 2 12 0 22 -4 22 -5 0 -8 10 -7 23 3 29 -5 48
-16 41 -5 -3 -9 2 -9 11 0 10 5 13 12 9 7 -5 9 -2 6 8 -4 9 -10 37 -13 64 -4
27 -12 56 -17 64 -7 11 -8 10 -3 -5 5 -15 3 -17 -5 -9 -9 9 -9 17 -1 32 6 10
7 23 3 27 -4 4 -7 14 -8 23 -1 10 -2 29 -3 45 -1 18 -6 27 -18 27 -14 0 -15 2
-4 9 10 6 11 17 6 37 -9 31 -14 54 -19 94 -2 14 -5 25 -6 25 -3 0 -11 50 -13
78 -1 9 -7 17 -14 17 -7 0 -13 5 -13 11 0 5 4 8 9 4 9 -5 8 11 -4 65 -2 8 -4
28 -4 43 -1 16 -4 26 -8 24 -5 -3 -9 17 -10 45 0 28 -7 55 -13 62 -9 8 -11 6
-5 -11 5 -19 2 -23 -14 -23 -11 0 -21 -8 -23 -17 -2 -10 -4 12 -4 49 1 65 8
85 12 30 3 -54 5 -56 20 -22 13 30 13 36 0 45 -8 6 -12 21 -9 35 2 14 0 36 -6
50 -7 18 -10 20 -10 8 -1 -12 -9 -18 -26 -18 -22 0 -25 -4 -25 -40 0 -33 -3
-40 -20 -40 -17 0 -20 -7 -20 -40 0 -33 -3 -40 -20 -40 -17 0 -20 -7 -20 -40
l0 -40 -40 0 -40 0 0 -40 c0 -33 -3 -40 -20 -40 -17 0 -20 -7 -20 -40 0 -33
-3 -40 -20 -40 -17 0 -20 -7 -20 -40 0 -38 -2 -40 -30 -40 -28 0 -30 -2 -30
-40 0 -38 -2 -40 -30 -40 -28 0 -30 -2 -30 -40 0 -33 -3 -40 -20 -40 -17 0
-20 -7 -20 -40 0 -38 -2 -40 -30 -40 -28 0 -30 -2 -30 -40 0 -38 -2 -40 -30
-40 -28 0 -30 -2 -30 -40 0 -33 -3 -40 -20 -40 -17 0 -20 -7 -20 -40 0 -38 -2
-40 -30 -40 -28 0 -30 -2 -30 -40 0 -38 -2 -40 -30 -40 -28 0 -30 -2 -30 -40
0 -33 -3 -40 -20 -40 -17 0 -20 -7 -20 -40 0 -38 -2 -40 -30 -40 -28 0 -30 -2
-30 -40 0 -38 -2 -40 -30 -40 -28 0 -30 -2 -30 -40 0 -33 -3 -40 -20 -40 -17
0 -20 -7 -20 -40 0 -38 -2 -40 -30 -40 -28 0 -30 -2 -30 -39 0 -38 -1 -38 -42
-44 -24 -3 -123 -3 -221 -1 -145 3 -187 1 -227 -12 -28 -9 -50 -20 -50 -25 0
-5 -36 -9 -80 -9 -47 0 -80 -4 -80 -10 0 -6 -47 -10 -120 -10 -73 0 -120 4
-120 10 0 6 -18 10 -40 10 -22 0 -40 -4 -40 -10 0 -6 -40 -10 -97 -11 -64 0
-91 -3 -78 -9 15 -7 10 -9 -22 -9 -31 -1 -43 -5 -43 -16 0 -13 -33 -15 -240
-15 -233 0 -240 -1 -240 -20 0 -20 -18 -25 -75 -23 -146 7 -391 2 -420 -8 -34
-13 -47 -29 -23 -29 6 0 8 -3 5 -6 -4 -4 -98 -9 -209 -10 -191 -4 -318 -18
-318 -36 0 -4 -18 -8 -40 -8 -22 0 -40 -4 -40 -10 0 -6 -53 -10 -139 -10 -157
0 -261 -9 -261 -22 0 -31 -68 -68 -126 -68 -24 0 -34 -5 -34 -15 0 -11 -11
-15 -40 -15 -22 0 -40 -4 -40 -10 0 -5 -18 -10 -39 -10 -22 0 -41 -5 -43 -10
-2 -6 -55 -13 -121 -17 -88 -5 -117 -9 -117 -20 0 -9 -13 -13 -40 -13 -33 0
-40 -3 -40 -20 0 -18 -7 -20 -78 -20 -66 0 -82 -3 -97 -20 -10 -11 -29 -20
-42 -20 -16 0 -23 -6 -23 -18 0 -23 -40 -62 -63 -62 -11 0 -17 -8 -17 -25 0
-15 -6 -25 -14 -25 -8 0 -16 -7 -20 -15 -3 -8 -15 -15 -26 -15 -17 0 -20 -6
-20 -40 0 -36 -2 -40 -25 -40 -19 0 -25 -5 -25 -21 0 -31 -18 -59 -39 -59 -13
0 -20 -10 -24 -34 -5 -32 -58 -112 -106 -162 -12 -12 -21 -26 -21 -33 0 -6 -6
-11 -14 -11 -8 0 -16 -16 -20 -40 -5 -30 -11 -40 -25 -40 -16 0 -19 -13 -24
-122 -4 -66 -7 -156 -7 -200 0 -51 -4 -78 -11 -78 -17 0 -7 -392 9 -398 8 -2
12 -31 12 -82 0 -43 4 -80 9 -82 5 -1 12 -38 16 -80 7 -71 6 -78 -10 -78 -16
0 -17 -7 -11 -61 3 -34 6 -70 6 -80 0 -11 7 -19 15 -19 11 0 15 -11 15 -40 0
-22 5 -40 10 -40 6 0 10 -18 10 -40 0 -22 4 -40 9 -40 5 0 12 -36 16 -80 4
-44 12 -80 17 -80 7 0 9 -21 5 -57 -7 -60 11 -263 23 -263 4 0 13 -54 20 -120
7 -66 17 -120 21 -120 5 0 9 -36 9 -80 0 -47 -4 -80 -10 -80 -6 0 -10 -33 -10
-80 0 -60 3 -80 14 -80 9 0 17 -32 26 -120 9 -80 17 -120 25 -120 20 0 27
-147 9 -181 -16 -32 -19 -139 -4 -139 6 0 10 -33 10 -80 0 -60 3 -80 13 -80
13 0 25 -88 58 -437 7 -68 15 -123 19 -123 4 0 13 -54 20 -120 7 -66 17 -120
21 -120 5 0 9 -18 9 -40 0 -22 5 -40 10 -40 6 0 10 -18 10 -39 0 -22 5 -41 10
-43 6 -2 13 -55 17 -121 5 -105 4 -117 -10 -117 -14 0 -17 -12 -17 -80 0 -73
2 -80 20 -80 18 0 20 -7 20 -80 l0 -80 -8807 0 c-6042 0 -8822 4 -8853 11 -85
19 -172 70 -245 144 -110 110 -123 146 -195 517 -33 172 -83 426 -110 563 -27
138 -76 392 -110 565 -57 297 -106 546 -270 1390 -38 195 -101 519 -140 720
-39 201 -102 525 -140 720 -38 195 -110 567 -160 825 -50 259 -111 571 -135
695 -24 124 -69 356 -100 515 -31 160 -73 380 -95 490 -22 110 -85 434 -140
720 -178 918 -226 1166 -369 1900 -215 1109 -221 1138 -216 1143 3 3 0 10 -5
17 -5 6 -12 29 -14 51 -2 21 -6 46 -9 54 -13 37 -28 150 -21 161 5 8 3 10 -6
4 -10 -6 -11 0 -6 30 5 25 4 35 -3 30 -6 -3 -12 2 -13 12 -5 66 -13 113 -23
135 -4 9 -4 22 0 29 4 6 1 15 -6 20 -12 8 -12 11 1 19 13 8 13 11 -2 22 -11 8
-20 31 -22 58 -3 25 -6 54 -8 65 -2 12 2 19 10 17 16 -3 15 8 -3 32 -11 15
-15 16 -16 5 0 -8 -5 -1 -9 15 -7 23 -5 32 8 43 9 8 12 12 6 9 -20 -10 -37 22
-30 55 3 18 2 28 -4 24 -6 -3 -10 -1 -10 4 0 15 27 14 33 -1 2 -7 8 0 12 15 5
18 3 33 -4 40 -6 6 -11 18 -11 26 1 9 8 3 17 -14 10 -18 18 -25 21 -17 2 7 -2
19 -8 27 -9 11 -9 15 -1 15 6 0 11 9 11 20 0 18 7 20 59 20 102 0 181 12 181
26 0 11 21 14 88 14 88 0 114 -8 125 -40 4 -12 6 -12 6 2 1 9 -6 24 -15 32
-12 12 -14 26 -9 57 5 31 4 40 -5 34 -8 -5 -9 3 -4 30 5 29 4 36 -6 30 -9 -6
-11 1 -5 26 3 19 3 29 -2 22 -5 -7 -9 10 -9 43 -1 31 -6 59 -13 63 -6 4 -9 15
-6 23 3 8 -3 53 -14 98 -12 46 -21 96 -21 111 0 16 -5 29 -11 29 -5 0 -8 4 -4
9 8 13 -17 151 -28 151 -4 0 -5 5 -2 10 4 6 -14 117 -40 248 -25 130 -57 293
-70 362 -81 421 -137 707 -141 723 -5 16 572 17 12020 17 7027 0 12026 4
12026 9 0 5 -51 272 -114 594 -107 551 -116 589 -151 656 -50 95 -151 191
-254 240 l-76 36 -9600 5 c-8527 4 -9600 7 -9596 20 2 8 33 168 70 355 l67
340 124 50 c69 28 139 58 156 68 l31 16 298 -199 c320 -214 354 -230 448 -215
100 16 116 29 510 423 272 271 386 391 405 427 21 42 26 64 26 130 1 99 9 83
-222 428 l-180 269 37 81 c21 45 50 116 66 157 16 41 31 78 35 83 3 4 154 37
335 73 181 36 343 71 360 78 46 19 102 72 133 125 l27 46 5 490 5 490 23 -82
c12 -46 54 -183 92 -306 91 -295 122 -411 310 -1142 428 -1663 477 -1860 466
-1866 -6 -3 -135 -39 -286 -79 -269 -71 -276 -73 -313 -112 -46 -46 -47 -80
-4 -112 28 -21 37 -21 473 -20 244 0 445 2 447 5 2 2 -2 70 -8 151 -14 158
-31 210 -72 216 -25 4 -28 13 -45 167 -16 145 -16 485 0 770 16 301 29 823 43
1715 11 717 10 864 -12 1010 l-11 75 90 225 c49 124 111 286 138 360 26 74 50
138 53 142 4 4 60 -208 125 -470 135 -543 186 -712 325 -1089 124 -339 169
-473 561 -1713 177 -558 333 -1052 348 -1098 l26 -82 -23 -16 c-13 -9 -29 -31
-36 -48 -13 -30 -42 -302 -34 -310 10 -10 249 -18 354 -11 l117 7 -7 87 c-19
245 -31 274 -107 279 l-46 3 -11 57 c-45 230 -53 332 -61 817 -11 622 -37
1379 -75 2195 -23 494 -36 591 -96 736 l-31 74 41 227 c147 822 169 1464 72
2091 -11 68 -21 125 -23 127 -1 2 -25 -22 -52 -53 -209 -243 -628 -478 -1205
-676 -616 -212 -1177 -239 -1568 -77 l-73 30 0 -222 c0 -122 5 -406 10 -632 5
-225 12 -561 16 -745 l7 -335 -40 36 c-22 20 -60 43 -84 52 -24 9 -183 44
-354 77 -170 34 -310 62 -310 63 -1 1 -23 58 -50 127 -26 69 -58 146 -71 171
l-23 46 189 282 c202 302 218 337 206 431 -13 98 -22 110 -404 492 l-365 367
-41 -29 c-157 -109 -188 -137 -228 -212 -37 -68 -191 -276 -227 -306 -12 -10
-36 -12 -91 -9 -149 11 -276 104 -295 217 -8 48 -25 58 -220 135 -66 26 -125
52 -131 59 -6 6 -39 152 -73 324 -34 175 -70 329 -80 350 -28 53 -79 102 -136
128 l-50 24 -555 0 -555 0 -60 -28z m470 -72 c22 -5 50 -21 63 -35 40 -47 24
-133 -29 -161 -32 -16 -154 -19 -193 -4 -34 12 -58 52 -58 95 0 91 90 135 217
105z m727 -23 c30 -17 52 -40 66 -69 20 -39 122 -524 122 -579 0 -11 -7 -34
-17 -49 -36 -62 -123 -67 -173 -10 -9 10 -36 125 -65 269 l-50 251 -152 0
-153 0 -32 28 c-27 25 -31 36 -31 76 0 53 27 90 77 106 17 5 106 8 198 6 158
-3 168 -4 210 -29z m1635 -789 c69 -65 86 -101 72 -152 -14 -49 -60 -79 -113
-72 -29 3 -51 16 -89 53 -27 26 -55 62 -63 80 -30 69 20 143 97 143 35 0 48
-7 96 -52z m238 -252 c12 -3 89 -75 172 -159 126 -127 153 -159 163 -196 23
-85 23 -84 -215 -436 -62 -92 -98 -125 -134 -125 -62 0 -118 65 -104 121 4 13
60 104 125 203 l118 180 -129 130 c-71 72 -132 142 -136 154 -16 55 11 109 65
131 24 9 33 9 75 -3z m562 -1615 c142 -28 266 -58 283 -68 17 -10 43 -35 58
-57 26 -38 27 -45 30 -184 4 -166 1 -185 -35 -218 -39 -36 -100 -34 -139 7
-28 30 -29 33 -32 155 -2 68 -5 124 -7 124 -21 0 -446 93 -461 101 -11 5 -24
9 -30 8 -5 -2 -19 2 -31 9 -24 13 -27 50 -4 48 12 -1 14 9 12 42 -1 24 3 50
10 58 10 12 9 13 -5 8 -9 -3 -16 -4 -16 0 0 9 64 24 90 20 14 -2 139 -26 277
-53z m-382 -20 c-3 -6 -11 -11 -17 -11 -6 0 -6 6 2 15 14 17 26 13 15 -4z
m724 -646 c24 -23 26 -32 26 -114 0 -81 -2 -92 -24 -115 -51 -54 -138 -38
-167 29 -18 45 -18 138 1 175 32 63 114 75 164 25z m13113 -3805 c64 -25 154
-94 206 -157 l35 -43 -330 0 c-381 0 -380 0 -348 69 28 63 105 126 185 152 46
15 191 3 252 -21z m1561 -13 c172 -85 275 -251 265 -426 -12 -197 -165 -313
-370 -280 -240 39 -425 279 -389 505 11 73 32 112 89 167 61 59 119 78 233 74
88 -2 103 -6 172 -40z m1532 -1 c240 -119 347 -403 217 -579 -49 -65 -84 -91
-101 -74 -9 9 -11 8 -6 -4 5 -13 -4 -20 -42 -32 -73 -23 -102 -26 -168 -16
-90 14 -197 70 -266 141 -33 33 -59 66 -59 73 0 7 -7 18 -15 25 -9 7 -14 19
-11 27 3 8 2 12 -3 9 -16 -10 -44 106 -43 180 1 95 29 160 94 219 68 61 112
75 229 72 89 -2 102 -6 174 -41z m-23282 -2736 c-3 -11 -9 -20 -15 -20 -5 0
-4 9 2 20 6 11 12 20 14 20 2 0 2 -9 -1 -20z m84 -162 c-3 -8 -6 -5 -6 6 -1
11 2 17 5 13 3 -3 4 -12 1 -19z m453 -13 c0 -8 -6 -15 -14 -15 -17 0 -28 14
-19 24 12 12 33 6 33 -9z m-497 -42 c3 -5 7 -21 9 -38 3 -16 3 -24 1 -17 -3 7
-8 10 -13 7 -4 -3 -6 4 -3 16 4 12 0 25 -8 30 -9 6 -10 9 -2 9 6 0 14 -3 16
-7z m34 1 c-3 -4 -2 -16 4 -28 10 -20 10 -20 -5 -2 -19 24 -20 36 -4 36 6 0 8
-3 5 -6z m10 -86 c-3 -8 -6 -5 -6 6 -1 11 2 17 5 13 3 -3 4 -12 1 -19z m-26
-55 c-9 -16 -10 -15 -11 8 0 14 3 29 8 33 12 12 14 -22 3 -41z m6 -55 c-3 -7
-5 -2 -5 12 0 14 2 19 5 13 2 -7 2 -19 0 -25z m10 -60 c-3 -7 -5 -2 -5 12 0
14 2 19 5 13 2 -7 2 -19 0 -25z m30 -66 c16 -16 13 -34 -6 -40 -9 -3 -11 2 -7
16 4 11 2 23 -4 27 -5 3 -10 14 -9 23 0 14 2 14 6 2 4 -8 12 -21 20 -28z m33
-59 c0 -13 -3 -13 -15 -3 -8 7 -12 16 -9 21 8 13 24 1 24 -18z m25441 -4613
c9 12 10 12 5 -3 -3 -10 -6 -24 -6 -30 -1 -7 -7 -1 -15 13 -8 14 -14 32 -14
40 0 8 5 4 10 -10 8 -20 12 -22 20 -10z m-44 -32 c-3 -7 -5 -2 -5 12 0 14 2
19 5 13 2 -7 2 -19 0 -25z m107 -251 c4 4 4 0 0 -10 -8 -22 -11 -22 -25 6 -11
19 -10 20 3 10 8 -7 18 -10 22 -6z m68 -384 c-6 -2 -9 -10 -6 -15 4 -7 2 -8
-5 -4 -13 9 -5 26 12 25 9 0 8 -2 -1 -6z m-11 -60 c-8 -15 -10 -15 -11 -2 0
17 10 32 18 25 2 -3 -1 -13 -7 -23z m17 -45 c10 -12 10 -18 1 -24 -7 -4 -9 -3
-5 4 3 6 2 13 -4 17 -5 3 -10 11 -10 17 0 6 1 9 3 7 1 -2 8 -11 15 -21z m107
-457 c3 -5 2 -12 -3 -15 -5 -3 -9 1 -9 9 0 17 3 19 12 6z m-4232 -418 c-13 -2
-33 -2 -45 0 -13 2 -3 4 22 4 25 0 35 -2 23 -4z m-386 -79 c-3 -3 -12 -4 -19
-1 -8 3 -5 6 6 6 11 1 17 -2 13 -5z m-847 -398 c0 -3 -4 -8 -10 -11 -5 -3 -10
-1 -10 4 0 6 5 11 10 11 6 0 10 -2 10 -4z m35 -36 c3 -5 1 -10 -4 -10 -6 0
-11 5 -11 10 0 6 2 10 4 10 3 0 8 -4 11 -10z m-115 -84 c0 -2 -8 -10 -17 -17
-16 -13 -17 -12 -4 4 13 16 21 21 21 13z m6695 -105 c119 -54 159 -198 86
-305 -52 -75 -88 -86 -288 -86 -158 0 -173 2 -214 23 -65 34 -109 104 -109
174 0 61 22 113 68 156 49 47 91 56 262 56 129 1 162 -3 195 -18z m2590 0
c164 -75 169 -293 8 -375 -29 -14 -131 -16 -1034 -16 l-1002 0 -45 22 c-48 25
-88 76 -104 137 -17 61 6 133 58 186 25 25 60 49 77 54 19 5 449 9 1017 10
935 1 987 0 1025 -18z m2620 -13 c61 -31 130 -104 155 -161 10 -23 32 -118 50
-210 17 -92 60 -317 96 -500 70 -358 71 -377 27 -444 -43 -67 -84 -88 -173
-88 -69 0 -80 3 -114 28 -72 56 -76 69 -165 527 -45 234 -85 435 -88 447 l-5
23 -933 2 -933 3 -38 31 c-78 63 -101 122 -83 213 9 42 20 63 54 97 24 24 58
47 77 53 20 6 411 9 1028 8 l995 -2 50 -27z m412 -1764 c54 -44 79 -84 91
-151 6 -32 32 -164 57 -293 70 -366 68 -347 33 -419 -33 -67 -103 -111 -174
-111 -83 0 -135 30 -178 104 -17 30 -38 114 -75 306 -29 146 -57 288 -63 316
-17 83 -7 158 29 202 50 62 97 83 175 80 57 -3 72 -8 105 -34z m-5569 -1478
c679 -459 727 -492 756 -533 34 -48 45 -118 25 -164 -13 -32 -662 -642 -724
-680 -45 -28 -91 -25 -125 9 -34 35 -37 45 -95 342 -227 1162 -225 1149 -194
1187 7 7 31 13 55 13 41 0 65 -14 302 -174z m-13720 -3758 c34 -5 62 -12 62
-15 0 -2 -11 -19 -24 -36 -118 -157 -128 -376 -26 -548 140 -236 447 -314 686
-174 l42 25 8 -67 c22 -207 -34 -434 -150 -611 -191 -290 -538 -452 -877 -411
-265 32 -490 161 -648 373 -204 271 -238 662 -85 962 122 239 311 400 564 478
144 45 281 52 448 24z m-16558 -837 c29 -29 46 -56 31 -47 -10 6 -12 4 -7 -11
4 -14 1 -19 -14 -20 -29 -2 -33 13 -8 32 l23 17 -25 -5 c-23 -5 -23 -5 -7 7
17 13 17 14 0 21 -10 5 -21 8 -25 7 -3 -1 -9 5 -12 13 -6 17 22 8 44 -14z
m30060 -131 c0 -6 -34 -10 -82 -9 -57 1 -75 4 -58 9 37 12 140 12 140 0z
m-323 -6 c-3 -3 -12 -4 -19 -1 -8 3 -5 6 6 6 11 1 17 -2 13 -5z m-77 -18 c0
-2 -8 -10 -17 -17 -16 -13 -17 -12 -4 4 13 16 21 21 21 13z m-8480 -1785 c0
-5 -7 -12 -16 -15 -14 -5 -15 -4 -4 9 14 17 20 19 20 6z m-4 -39 c0 -19 -31
-28 -41 -11 -3 5 0 6 8 3 8 -3 17 2 20 10 8 21 13 20 13 -2z m-16671 -162 c3
-5 1 -10 -4 -10 -6 0 -11 5 -11 10 0 6 2 10 4 10 3 0 8 -4 11 -10z m-28 -14
c-4 -9 1 -17 11 -19 9 -3 5 -4 -10 -4 -26 1 -32 15 -13 29 15 11 18 10 12 -6z
m218 -66 c-4 -6 -12 -10 -18 -10 -7 0 -6 4 3 10 8 5 10 10 4 10 -5 0 -19 7
-30 15 -16 14 -15 14 14 0 18 -9 30 -20 27 -25z m3241 -25 c212 -34 414 -123
604 -266 89 -67 230 -202 276 -263 16 -22 39 -51 52 -64 12 -14 22 -28 22 -33
0 -14 -18 -20 -26 -8 -5 8 -3 9 6 4 9 -5 11 -4 6 4 -6 9 -11 9 -22 0 -8 -6
-14 -8 -15 -3 -1 5 -4 -2 -8 -15 -3 -13 -15 -29 -26 -35 -27 -15 -34 -26 -28
-45 4 -13 3 -13 -5 -2 -7 10 -14 11 -28 3 -15 -8 -22 -6 -34 13 -50 75 -252
261 -360 330 -168 108 -401 185 -560 185 -60 0 -91 18 -113 63 -24 47 -15 88
25 122 36 30 94 33 234 10z m-3261 -5 c-3 -5 -12 -10 -18 -10 -7 0 -6 4 3 10
19 12 23 12 15 0z m75 -50 c0 -5 -2 -10 -4 -10 -3 0 -8 5 -11 10 -3 6 -1 10 4
10 6 0 11 -4 11 -10z m-357 -135 c-7 -21 -13 -19 -13 6 0 11 4 18 10 14 5 -3
7 -12 3 -20z m97 -26 c20 -16 21 -18 5 -13 -11 4 -26 11 -32 17 -7 5 -21 7
-31 5 -10 -3 -19 0 -19 6 0 17 48 8 77 -15z m-3450 -133 c0 -2 -7 -7 -16 -10
-8 -3 -12 -2 -9 4 6 10 25 14 25 6z m3715 -34 c-3 -3 -11 0 -18 7 -9 10 -8 11
6 5 10 -3 15 -9 12 -12z m6989 -37 c31 -4 59 -11 61 -16 3 -4 -17 -49 -46 -99
-38 -68 -55 -90 -67 -86 -10 3 -29 8 -45 12 -63 15 -97 101 -61 153 18 25 72
53 90 47 6 -2 36 -7 68 -11z m7102 -5 c439 -90 835 -295 1131 -585 82 -81 103
-107 108 -137 13 -71 -50 -137 -118 -124 -22 4 -63 36 -134 105 -275 267 -599
436 -1011 529 -145 32 -177 50 -188 106 -8 44 10 83 48 106 41 25 43 25 164 0z
m7801 -82 c-3 -8 -6 -5 -6 6 -1 11 2 17 5 13 3 -3 4 -12 1 -19z m-17727 -159
c0 -6 -4 -7 -10 -4 -5 3 -10 11 -10 16 0 6 5 7 10 4 6 -3 10 -11 10 -16z
m-6695 -42 c40 -23 66 -45 78 -68 31 -59 5 -119 -60 -136 -37 -9 -57 -6 -124
24 -73 32 -104 80 -88 136 22 81 96 98 194 44z m6535 -60 c-8 -9 -9 -7 -4 7 5
13 4 17 -4 12 -8 -5 -10 -2 -5 10 6 15 7 15 16 -1 6 -11 5 -21 -3 -28z m230
-12 c0 -5 -5 -3 -10 5 -5 8 -10 20 -10 25 0 6 5 3 10 -5 5 -8 10 -19 10 -25z
m-180 -45 c12 -16 19 -30 16 -30 -2 0 -14 14 -26 30 -12 17 -19 30 -16 30 2 0
14 -13 26 -30z m-2864 -153 c122 -120 124 -123 124 -167 0 -48 -3 -55 -36 -83
-61 -51 -105 -31 -246 111 -114 114 -118 120 -118 161 0 62 41 101 106 101 47
0 47 -1 170 -123z m2904 98 c11 -13 10 -14 -4 -9 -9 3 -16 10 -16 15 0 13 6
11 20 -6z m15570 -384 c0 -5 -9 -11 -21 -14 -16 -4 -18 -3 -8 9 13 16 29 19
29 5z m-65 -31 c-10 -11 -21 -17 -24 -14 -3 3 3 12 13 20 28 20 32 17 11 -6z
m-4041 -260 c33 0 67 -56 101 -164 42 -132 54 -218 34 -242 -32 -38 -68 -52
-110 -42 -44 12 -73 44 -84 98 -4 19 -23 79 -41 132 -38 109 -41 143 -18 177
19 26 72 53 92 46 8 -3 19 -5 26 -5z m-16021 -1823 c4 3 7 -3 7 -15 0 -27 -11
-28 -33 -4 -18 20 -11 38 8 22 7 -5 15 -7 18 -3z m85 -86 c-1 -18 -7 -27 -14
-24 -21 8 -24 32 -6 42 23 14 23 15 20 -18z m-3411 -27 c-3 -3 -12 -4 -19 -1
-8 3 -5 6 6 6 11 1 17 -2 13 -5z"/>
<path d="M15273 30195 c0 -22 2 -30 4 -17 2 12 2 30 0 40 -3 9 -5 -1 -4 -23z"/>
<path d="M15253 30128 c-23 -11 -31 -28 -13 -28 6 0 10 4 10 9 0 4 12 6 28 3
24 -5 26 -4 13 11 -7 10 -14 17 -15 16 0 0 -11 -5 -23 -11z"/>
<path d="M32345 25150 c-3 -6 1 -7 9 -4 18 7 21 14 7 14 -6 0 -13 -4 -16 -10z"/>
<path d="M41606 12768 c3 -5 10 -6 15 -3 13 9 11 12 -6 12 -8 0 -12 -4 -9 -9z"/>
<path d="M41342 12761 c-11 -6 -10 -10 0 -19 11 -8 14 -7 14 9 0 10 0 19 -1
19 0 0 -6 -4 -13 -9z"/>
<path d="M14414 4775 c-4 -9 -4 -19 0 -22 3 -4 6 1 6 10 0 19 15 23 23 7 3 -6
4 -5 3 2 -4 19 -25 21 -32 3z"/>
<path d="M9880 1956 c0 -2 8 -10 18 -17 15 -13 16 -12 3 4 -13 16 -21 21 -21
13z"/>
<path d="M47865 32962 c5 -9 19 -53 33 -97 22 -72 25 -106 32 -330 11 -335 45
-496 149 -702 l36 -73 164 283 c91 155 198 337 238 405 41 68 71 127 68 133
-4 5 -25 19 -48 30 -69 36 -287 168 -369 226 -84 59 -174 103 -256 127 -51 15
-53 14 -47 -2z"/>
<path d="M37185 32443 c-251 -53 -465 -234 -562 -473 -39 -97 -55 -193 -52
-316 1 -61 -1 -116 -6 -124 -5 -9 -4 -11 3 -6 8 5 12 -2 13 -21 2 -43 10 -72
30 -103 5 -8 16 -31 25 -49 30 -66 87 -146 152 -213 l65 -68 -34 -1 c-19 -1
-45 -5 -59 -9 -24 -8 -25 -8 -2 -9 13 -1 22 -7 21 -13 -3 -28 2 -38 20 -38 11
0 26 -8 33 -18 20 -27 36 -34 56 -23 12 6 23 6 33 -1 11 -8 11 -9 -3 -4 -30 9
-29 -11 2 -38 17 -14 50 -35 73 -46 23 -11 62 -33 87 -49 25 -16 55 -30 66
-30 12 -1 24 -8 28 -16 3 -8 16 -15 28 -14 22 0 22 1 3 9 -14 6 -7 8 25 5 25
-2 59 -4 77 -4 17 -1 38 -8 47 -16 10 -10 31 -15 63 -14 27 1 60 -4 73 -11 18
-9 25 -10 28 -1 5 16 32 13 32 -4 0 -8 -3 -14 -7 -13 -5 0 -16 -2 -25 -6 -17
-8 -18 -47 -18 -627 l0 -618 341 -3 c187 -2 343 1 346 5 9 15 20 162 13 172
-5 6 -10 20 -12 33 l-3 24 -212 -2 -213 -1 0 504 c0 389 -3 506 -12 516 -11
10 0 11 57 7 39 -4 147 -10 240 -15 94 -5 181 -11 195 -15 14 -4 102 -11 195
-17 94 -5 200 -12 236 -15 60 -5 66 -4 64 13 0 10 -5 25 -10 33 -8 13 -6 13
11 1 37 -28 -111 121 -159 160 l-49 39 236 0 235 0 45 -62 c24 -35 64 -97 87
-138 24 -41 49 -81 55 -87 15 -16 101 -17 106 -2 2 5 11 7 20 4 9 -4 15 -12
12 -19 -3 -7 0 -23 6 -37 10 -22 10 -21 5 9 -2 18 -1 31 4 28 15 -10 -48 132
-99 220 l-48 84 2016 2 2017 3 73 23 c347 107 572 404 572 752 0 369 -259 689
-618 765 -104 22 -5964 20 -6067 -2z m2918 -94 c37 -21 56 -52 57 -95 0 -36
-5 -47 -36 -74 l-36 -31 -160 3 -160 3 -30 34 c-26 29 -29 40 -25 73 6 42 29
75 62 89 32 12 303 11 328 -2z m1473 -20 c15 -16 28 -41 31 -66 5 -35 1 -45
-25 -74 l-30 -34 -541 -3 c-603 -3 -588 -4 -617 65 -20 47 -4 97 40 124 30 18
52 19 573 17 l543 -3 26 -26z m1719 -1 c178 -60 310 -172 396 -335 45 -85 35
-150 -28 -182 -58 -29 -111 -2 -155 81 -41 78 -127 167 -196 202 -110 56 -114
56 -787 56 -559 0 -623 2 -645 16 -40 27 -50 45 -50 88 0 47 4 53 44 84 l30
23 655 -3 656 -3 80 -27z m-6450 -1288 c-3 -5 -12 -10 -18 -10 -7 0 -6 4 3 10
19 12 23 12 15 0z m232 -176 c-3 -3 -12 -4 -19 -1 -8 3 -5 6 6 6 11 1 17 -2
13 -5z m522 -135 c-8 -5 6 -9 36 -12 l50 -3 -52 -2 c-47 -2 -53 0 -53 18 0 14
5 18 16 13 12 -4 13 -8 3 -14z m101 -1 c0 -19 -2 -20 -10 -8 -13 19 -13 30 0
30 6 0 10 -10 10 -22z m30 1 c0 -6 -4 -7 -10 -4 -5 3 -10 11 -10 16 0 6 5 7
10 4 6 -3 10 -11 10 -16z"/>
<path d="M48735 32148 c-64 -161 -145 -353 -178 -426 -33 -73 -58 -134 -56
-136 2 -2 63 -22 134 -45 175 -54 379 -103 439 -105 49 -1 50 0 98 59 62 76
122 197 149 300 26 98 31 301 10 384 -12 47 -18 55 -50 68 -72 30 -198 87
-293 134 -53 26 -105 50 -115 53 -18 6 -33 -26 -138 -286z"/>
<path d="M27263 31529 c-51 -5 -144 -22 -207 -39 -322 -83 -605 -274 -812
-550 -81 -107 -184 -314 -224 -449 -257 -876 349 -1771 1260 -1860 81 -8 476
-11 1325 -8 1199 3 1211 3 1309 25 214 47 410 131 573 249 113 80 289 260 361
368 108 162 181 338 223 535 30 141 32 399 5 540 -89 455 -378 840 -781 1040
-130 65 -226 98 -374 132 -96 22 -101 22 -1331 24 -679 1 -1277 -2 -1327 -7z
m1286 -164 c57 -34 76 -68 76 -138 0 -48 -5 -69 -22 -93 -42 -59 -67 -64 -311
-64 -211 0 -220 1 -252 23 -72 49 -95 115 -66 192 19 48 59 83 110 96 17 4
121 7 231 6 180 -2 203 -4 234 -22z m1306 -1 c467 -77 860 -416 1019 -878 55
-157 44 -237 -37 -289 -51 -33 -98 -34 -151 -4 -45 26 -64 60 -101 181 -92
300 -325 539 -630 643 -128 44 -217 53 -502 53 -297 0 -314 3 -359 69 -17 26
-24 49 -24 86 0 85 50 143 134 155 76 12 556 0 651 -16z"/>
<path d="M36573 31417 c1 -15 5 -27 10 -27 10 0 9 22 -2 39 -7 10 -9 7 -8 -12z"/>
<path d="M37255 30752 c8 -8 85 -7 85 1 0 4 -20 7 -45 6 -24 -2 -43 -5 -40 -7z"/>
<path d="M37240 30723 c0 -9 -22 -13 -77 -13 -43 0 -84 -4 -91 -8 -7 -5 -73
-155 -147 -335 -73 -179 -138 -333 -142 -342 -7 -11 -47 80 -143 321 -74 185
-140 343 -148 350 -10 10 -44 14 -120 14 -59 0 -116 -3 -128 -6 -20 -5 -21
-19 -43 -620 -13 -338 -21 -618 -17 -622 10 -9 149 -16 190 -8 l34 6 7 318 c4
174 10 357 14 407 l6 90 104 -265 c57 -146 107 -273 112 -282 8 -15 24 -18 97
-18 48 0 92 4 99 8 6 4 65 131 130 282 l118 275 3 -70 c2 -38 8 -219 15 -402
7 -182 16 -335 21 -340 4 -4 59 -9 122 -10 l114 -1 0 46 c0 26 -11 306 -26
622 -28 601 -29 609 -71 593 -8 -3 -19 0 -24 8 -6 10 -9 10 -9 2z"/>
<path d="M34248 30703 c-17 -4 -18 -42 -18 -618 0 -448 3 -616 11 -621 19 -11
142 -17 203 -10 l56 7 0 265 0 264 200 0 200 0 0 -264 0 -263 31 -7 c17 -3 62
-6 99 -6 37 0 82 3 99 6 l31 7 0 617 0 618 -22 6 c-30 8 -202 8 -222 0 -14 -5
-16 -36 -16 -245 l0 -239 -200 0 -200 0 0 239 0 239 -22 6 c-26 7 -204 6 -230
-1z"/>
<path d="M35236 30684 c-8 -20 -8 -168 0 -188 5 -14 28 -16 155 -16 l149 0 0
-509 0 -508 38 -7 c48 -8 127 -8 186 0 l46 7 0 508 0 508 153 3 152 3 0 105 0
105 -436 3 c-392 2 -437 1 -443 -14z"/>
<path d="M38742 30669 c3 -8 -2 -23 -11 -34 -13 -16 -13 -17 -1 -8 10 7 21 8
30 3 8 -5 18 -6 23 -3 5 3 3 9 -4 14 -8 4 -14 14 -14 20 0 7 -6 14 -14 17 -8
3 -12 -1 -9 -9z"/>
<path d="M39297 30581 c-4 -17 -3 -21 5 -13 5 5 8 16 6 23 -3 8 -7 3 -11 -10z"/>
<path d="M39231 30524 c0 -11 3 -14 6 -6 3 7 2 16 -1 19 -3 4 -6 -2 -5 -13z"/>
<path d="M39266 30527 c3 -10 9 -15 12 -12 3 3 0 11 -7 18 -10 9 -11 8 -5 -6z"/>
<path d="M39246 30505 c-9 -26 -7 -32 5 -12 6 10 9 21 6 23 -2 3 -7 -2 -11
-11z"/>
<path d="M39364 30442 c0 -28 4 -48 8 -46 4 2 8 -6 10 -18 4 -25 28 -37 28
-13 0 9 -4 13 -10 10 -6 -3 -7 1 -4 9 3 9 1 16 -5 16 -6 0 -11 7 -11 16 0 8 5
12 11 8 15 -9 2 36 -16 54 -10 11 -12 4 -11 -36z"/>
<path d="M49360 30480 c-9 -6 -10 -10 -3 -10 6 0 15 5 18 10 8 12 4 12 -15 0z"/>
<path d="M49312 30404 c-7 -8 -8 -14 -3 -14 10 0 25 19 20 25 -2 1 -10 -3 -17
-11z"/>
<path d="M39363 30341 c2 -37 0 -41 -20 -41 -20 0 -23 -5 -23 -40 0 -38 -2
-40 -30 -40 -28 0 -30 -2 -30 -40 0 -38 -2 -40 -30 -40 -28 0 -30 -2 -30 -40
0 -33 -3 -40 -20 -40 -17 0 -20 -7 -20 -40 0 -38 -2 -40 -30 -40 -28 0 -30 -2
-30 -40 0 -38 -2 -40 -30 -40 -28 0 -30 -2 -30 -40 0 -33 -3 -40 -20 -40 -17
0 -20 -7 -20 -40 0 -33 -3 -40 -20 -40 -17 0 -20 -7 -20 -40 l0 -40 -40 0 -40
0 0 -40 c0 -33 -3 -40 -20 -40 -17 0 -20 -7 -20 -40 0 -33 -3 -40 -20 -40 -17
0 -20 -7 -20 -40 0 -33 -3 -40 -20 -40 -17 0 -20 -7 -20 -40 l0 -40 -40 0 -40
0 0 -40 c0 -33 -3 -40 -20 -40 -17 0 -20 -7 -20 -40 0 -33 -3 -40 -20 -40 -17
0 -20 -7 -20 -40 0 -38 -2 -40 -30 -40 -28 0 -30 -2 -30 -40 0 -38 -2 -40 -30
-40 -28 0 -30 -2 -30 -40 0 -33 -3 -40 -20 -40 -17 0 -20 -7 -20 -40 0 -38 -2
-40 -30 -40 -28 0 -30 -2 -30 -40 0 -38 -2 -40 -30 -40 -28 0 -30 -2 -30 -39
0 -22 5 -42 13 -44 7 -4 6 -6 -4 -6 -9 -1 -30 -8 -45 -16 -16 -8 -36 -12 -46
-9 -9 2 -19 0 -23 -5 -4 -7 -15 -5 -31 5 -14 10 -24 12 -24 5 0 -5 -6 -9 -12
-7 -7 1 -9 1 -5 -2 4 -2 0 -10 -10 -18 -10 -7 -13 -14 -6 -14 6 0 15 5 18 10
4 6 11 7 17 4 7 -5 8 -2 3 6 -6 10 -4 11 11 6 20 -9 23 -9 64 -2 14 2 38 4 53
5 16 0 26 5 23 10 -4 5 2 7 13 4 10 -3 22 0 25 6 4 6 20 11 36 11 16 0 32 5
35 10 4 6 11 8 16 5 5 -4 9 1 9 11 0 13 6 15 30 11 18 -4 30 -2 30 4 0 6 5 7
12 3 7 -5 8 -3 4 5 -5 7 -15 10 -25 6 -12 -5 -13 -3 -5 5 9 9 17 9 34 0 18
-10 24 -9 31 1 4 7 5 17 2 22 -3 5 4 4 16 -2 14 -8 21 -8 21 -1 0 5 3 9 8 8
12 -4 72 24 72 33 0 5 6 8 13 6 6 -1 11 3 10 10 -2 7 4 10 12 7 8 -4 15 -1 15
6 0 6 4 9 9 6 4 -3 17 2 27 10 10 9 12 12 4 8 -13 -7 -13 -5 -1 9 15 18 26 23
16 7 -3 -5 -3 -10 0 -10 8 0 76 50 90 65 6 7 20 17 33 24 15 8 21 18 18 27 -3
9 -1 12 4 9 25 -15 222 206 296 331 42 70 94 174 88 174 -4 0 -1 7 6 15 7 8 9
15 6 15 -4 0 0 7 9 16 9 9 14 23 11 30 -3 8 -1 14 4 14 4 0 12 15 16 33 4 17
9 37 10 42 36 129 45 170 47 222 1 35 5 63 10 63 9 0 8 241 -1 255 -4 6 -8 24
-8 40 -1 17 -2 37 -3 46 0 9 -14 33 -30 53 l-30 37 2 -40z m28 -15 c13 8 11
-10 -4 -31 -13 -16 -14 -15 -14 16 -1 19 1 28 4 21 3 -6 9 -10 14 -6z m-19
-101 c-2 -14 -6 -25 -8 -25 -2 0 -4 11 -4 25 0 14 4 25 9 25 4 0 6 -11 3 -25z
m38 -26 c0 -5 -4 -9 -10 -9 -5 0 -10 7 -10 16 0 8 5 12 10 9 6 -3 10 -10 10
-16z m-20 -31 c0 -6 -6 -5 -15 2 -8 7 -15 14 -15 16 0 2 7 1 15 -2 8 -4 15
-11 15 -16z m-7 -363 c-3 -9 -8 -14 -10 -11 -3 3 -2 9 2 15 9 16 15 13 8 -4z
m-183 -508 c0 -2 -10 -12 -22 -23 l-23 -19 19 23 c18 21 26 27 26 19z m-530
-472 c0 -12 -19 -12 -23 0 -4 9 -1 12 9 8 7 -3 14 -7 14 -8z m-240 -55 c0 -5
-5 -10 -11 -10 -5 0 -7 5 -4 10 3 6 8 10 11 10 2 0 4 -4 4 -10z m48 -20 c3 -8
1 -12 -3 -7 -5 4 -19 0 -31 -8 -13 -8 -25 -11 -29 -6 -3 5 4 12 15 16 11 4 17
11 14 17 -4 6 1 8 11 6 10 -1 20 -10 23 -18z"/>
<path d="M49289 30363 c-13 -16 -12 -17 4 -4 16 13 21 21 13 21 -2 0 -10 -8
-17 -17z"/>
<path d="M49323 30354 c1 -26 27 -21 27 5 0 13 -2 13 -9 2 -7 -11 -9 -11 -14
0 -3 8 -4 4 -4 -7z"/>
<path d="M39265 30352 c-5 -4 -16 -14 -23 -23 -10 -14 -10 -18 2 -22 10 -4 13
-1 9 9 -3 7 0 14 5 14 6 0 13 -8 15 -17 2 -10 4 -3 3 14 0 18 -1 33 -1 33 0 0
-4 -4 -10 -8z"/>
<path d="M38880 30321 c0 -6 4 -13 10 -16 6 -3 7 1 4 9 -7 18 -14 21 -14 7z"/>
<path d="M39199 30303 c-13 -16 -12 -17 4 -4 16 13 21 21 13 21 -2 0 -10 -8
-17 -17z"/>
<path d="M49232 30273 c-5 -10 -7 -24 -4 -32 3 -9 0 -11 -8 -6 -9 5 -11 4 -6
-4 9 -14 29 -4 23 12 -2 7 0 20 5 30 5 9 6 17 4 17 -3 0 -9 -8 -14 -17z"/>
<path d="M39185 30270 c-3 -5 -11 -8 -18 -6 -7 1 -9 1 -4 -1 4 -3 5 -9 2 -14
-4 -5 2 -6 11 -2 11 4 15 3 10 -5 -3 -6 -3 -13 1 -15 5 -3 9 8 9 24 2 31 -1
35 -11 19z"/>
<path d="M38977 30259 c7 -7 15 -10 18 -7 3 3 -2 9 -12 12 -14 6 -15 5 -6 -5z"/>
<path d="M49250 30255 c0 -8 2 -15 4 -15 2 0 6 7 10 15 3 8 1 15 -4 15 -6 0
-10 -7 -10 -15z"/>
<path d="M39008 30223 c7 -3 16 -2 19 1 4 3 -2 6 -13 5 -11 0 -14 -3 -6 -6z"/>
<path d="M49268 30223 c6 -2 12 -13 12 -24 0 -15 -7 -19 -39 -19 -23 0 -41 5
-44 13 -2 6 -3 5 -2 -4 1 -9 -6 -22 -16 -30 -10 -7 -16 -16 -13 -21 3 -4 1 -8
-5 -8 -6 0 -18 -14 -27 -31 -11 -23 -12 -29 -2 -23 7 4 1 -4 -14 -19 -26 -25
-38 -44 -20 -33 5 3 9 -1 9 -8 0 -8 -7 -12 -15 -8 -10 3 -13 1 -8 -6 4 -7 3
-12 -1 -12 -5 0 -33 -43 -63 -96 -29 -53 -59 -98 -65 -100 -6 -3 -135 37 -285
87 l-274 92 -45 -54 c-106 -128 -252 -259 -412 -369 l-73 -50 -106 0 c-100 0
-108 -2 -129 -24 -17 -18 -22 -33 -19 -63 l3 -38 -90 -34 c-249 -93 -458 -125
-810 -124 -684 3 -1136 96 -1342 277 l-33 28 0 -28 c0 -55 20 -154 50 -245
107 -327 303 -577 615 -785 429 -285 907 -422 1740 -499 93 -9 170 -17 171
-18 5 -5 45 -319 41 -323 -10 -11 -57 17 -84 50 l-28 36 -130 0 -130 0 -17
-29 c-27 -49 -70 -65 -191 -69 -161 -6 -193 1 -245 55 l-43 44 -184 -3 c-177
-3 -184 -4 -208 -26 -43 -40 -53 -76 -33 -121 34 -74 0 -71 695 -71 342 0 621
-1 622 -2 0 -2 8 -54 18 -115 l18 -113 -630 0 c-710 0 -681 3 -719 -75 -19
-38 -19 -44 -5 -77 32 -77 -8 -72 731 -78 l660 -5 12 -70 c6 -38 14 -89 18
-112 l6 -43 -676 0 c-489 0 -681 -3 -697 -11 -75 -41 -84 -127 -20 -184 l28
-24 701 -1 701 0 16 -100 c10 -54 17 -106 17 -114 0 -14 -82 -16 -714 -18
-709 -3 -715 -3 -743 -24 -15 -12 -34 -38 -42 -58 -13 -33 -12 -41 2 -72 9
-19 31 -43 49 -54 32 -19 52 -20 763 -20 l731 0 21 -112 c11 -62 20 -114 19
-115 -4 -4 -4069 -4 -4072 0 -2 2 -97 2 -211 0 -235 -3 -246 -7 -272 -79 -12
-34 -11 -44 2 -76 9 -22 28 -43 49 -54 40 -21 -187 -20 2487 -17 1136 2 2066
1 2069 -1 2 -2 11 -53 21 -113 l17 -108 -2284 -3 -2285 -2 -33 -25 c-18 -14
-38 -41 -44 -60 -10 -30 -9 -41 7 -72 10 -21 33 -44 53 -55 33 -17 125 -18
2322 -18 l2288 0 0 -80 0 -80 -31 0 c-23 0 -40 -9 -63 -35 l-32 -35 -2234 0
-2233 0 -33 -21 c-67 -41 -65 -129 5 -178 l29 -21 2216 0 2216 0 -6 -40 c-4
-22 -4 -40 -2 -40 3 0 94 -11 204 -24 595 -74 686 -80 728 -52 26 16 28 22 23
63 -3 27 -14 54 -28 70 -23 23 -23 25 -4 23 43 -5 58 1 91 34 42 42 46 92 12
143 -35 51 -66 55 -374 51 -151 -2 -274 -1 -274 2 0 3 7 50 15 105 8 55 15
103 15 108 0 4 122 7 270 7 208 0 278 3 304 14 l33 14 -15 -77 c-8 -42 -16
-87 -16 -101 l-1 -25 225 -26 c312 -37 555 -61 622 -61 102 -1 136 48 85 122
-22 34 -53 48 -554 247 -24 10 -43 24 -43 33 -2 70 458 2637 526 2935 116 515
158 749 151 841 -5 68 -31 134 -71 182 l-28 32 -608 0 -607 0 33 36 c19 19 34
39 34 43 0 5 24 50 54 102 52 91 262 471 317 574 14 28 36 68 49 90 22 39 22
39 1 15 -12 -14 -26 -34 -30 -45 -5 -11 -18 -21 -29 -22 -18 -1 -20 3 -16 34
3 20 7 39 9 43 5 8 -19 21 -33 19 -4 0 -1 -3 6 -6z m-68 -83 c0 -5 -5 -10 -11
-10 -5 0 -7 5 -4 10 3 6 8 10 11 10 2 0 4 -4 4 -10z m-20 -56 c0 -7 -4 -15 -9
-18 -5 -4 -7 4 -3 16 4 17 2 20 -11 15 -11 -4 -14 -2 -10 9 4 11 9 12 19 3 8
-6 14 -17 14 -25z m114 21 c3 -8 1 -15 -4 -15 -6 0 -10 7 -10 15 0 8 2 15 4
15 2 0 6 -7 10 -15z m-63 -128 c-10 -9 -11 -8 -5 6 3 10 9 15 12 12 3 -3 0
-11 -7 -18z m-853 -524 c-3 -27 -5 -28 -76 -31 -58 -2 -73 0 -78 13 -14 36 3
45 81 45 l76 0 -3 -27z m182 -3 l0 -30 -75 0 -75 0 0 30 0 30 75 0 75 0 0 -30z
m150 -30 l0 -60 -60 0 -60 0 0 60 0 60 60 0 60 0 0 -60z m-330 -35 c0 -25 -1
-25 -80 -25 -79 0 -80 0 -80 25 0 25 1 25 80 25 79 0 80 0 80 -25z m180 0 c0
-24 -2 -25 -75 -25 -73 0 -75 1 -75 25 0 24 2 25 75 25 73 0 75 -1 75 -25z
m494 -1087 c4 -29 11 -116 16 -193 5 -77 16 -212 25 -300 8 -88 15 -168 15
-177 0 -16 -11 -18 -88 -18 -49 0 -91 2 -94 5 -2 3 7 101 22 218 15 116 33
268 39 337 17 165 20 180 41 180 14 0 19 -11 24 -52z m69 -830 c3 -13 9 -65
13 -115 l7 -93 -132 0 c-98 0 -131 3 -131 13 1 35 27 195 34 205 5 8 40 12
106 12 93 0 98 -1 103 -22z m62 -601 c7 -72 6 -79 -9 -74 -9 4 -93 7 -186 7
-104 1 -170 5 -170 11 0 10 16 124 26 187 l5 32 154 0 c117 0 155 3 156 13 2
18 16 -85 24 -176z m55 -502 c16 -126 36 -283 45 -347 12 -88 15 -180 13 -361
l-3 -244 -30 -26 c-28 -24 -30 -24 -37 -6 -4 10 -22 28 -40 39 -31 19 -51 20
-296 20 -246 0 -263 1 -258 18 2 9 10 59 17 110 7 53 17 92 23 92 12 1 464 10
481 10 15 0 7 220 -8 221 -7 0 -104 1 -218 1 -113 -1 -211 3 -218 7 -11 7 -11
27 1 112 l13 104 215 5 215 5 3 113 3 112 -202 0 -201 0 6 43 c3 23 9 67 12
97 11 95 0 90 207 90 143 0 187 3 203 14 10 8 20 12 21 8 2 -4 16 -110 33
-237z"/>
<path d="M49312 30190 c-14 -23 -15 -30 -3 -30 8 0 24 41 18 47 -2 1 -8 -7
-15 -17z"/>
<path d="M34120 28885 c7 -8 21 -15 30 -15 10 0 20 -5 22 -11 2 -7 10 -4 18 7
9 10 10 15 3 11 -7 -5 -26 -1 -42 8 -38 19 -47 19 -31 0z"/>
<path d="M34080 28882 c0 -12 19 -26 26 -19 2 2 -2 10 -11 17 -9 8 -15 8 -15
2z"/>
<path d="M33974 28837 c-12 -15 -29 -27 -37 -27 -9 0 -17 -10 -19 -22 -2 -12
-10 -23 -18 -25 -13 -4 -13 -3 0 7 12 9 12 11 1 8 -8 -2 -15 -11 -17 -20 -1
-11 3 -15 14 -11 11 5 13 3 7 -8 -7 -11 -6 -12 6 -2 10 8 19 9 29 1 12 -8 12
-9 -2 -4 -10 3 -18 2 -18 -3 0 -5 9 -11 20 -14 11 -3 20 -1 20 4 0 4 8 13 18
18 14 8 18 5 19 -11 2 -16 -1 -17 -13 -8 -11 10 -14 9 -14 -4 0 -15 16 -21 53
-18 9 1 17 -3 17 -8 0 -5 7 -7 15 -4 8 4 15 2 15 -4 0 -9 38 -19 105 -28 17
-2 50 -8 75 -13 62 -13 459 -13 405 0 -127 30 -247 82 -350 153 -33 22 -70 46
-83 53 -20 11 -23 10 -20 -5 2 -10 12 -17 26 -16 17 0 19 -2 10 -13 -10 -12
-13 -12 -25 0 -11 11 -37 13 -113 9 -97 -5 -98 -4 -102 19 l-3 24 -21 -28z
m211 -37 c3 -5 2 -10 -4 -10 -5 0 -13 5 -16 10 -3 6 -2 10 4 10 5 0 13 -4 16
-10z m85 -14 c-7 -7 -13 -7 -20 0 -6 6 -3 10 10 10 13 0 16 -4 10 -10z m-295
-25 c-3 -6 -11 -11 -16 -11 -5 0 -4 6 3 14 14 16 24 13 13 -3z"/>
<path d="M33723 28837 c0 -8 6 -14 14 -14 9 0 10 4 2 14 -6 7 -12 13 -14 13
-1 0 -2 -6 -2 -13z"/>
<path d="M33757 28839 c7 -7 15 -10 18 -7 3 3 -2 9 -12 12 -14 6 -15 5 -6 -5z"/>
<path d="M33795 28840 c-3 -6 1 -7 9 -4 18 7 21 14 7 14 -6 0 -13 -4 -16 -10z"/>
<path d="M33810 28826 c0 -2 7 -9 15 -16 9 -7 15 -8 15 -2 0 5 -7 12 -15 16
-8 3 -15 4 -15 2z"/>
<path d="M33810 28782 c0 -5 11 -14 25 -20 34 -16 39 -15 23 2 -7 8 -16 12
-20 9 -5 -2 -8 1 -8 6 0 6 -4 11 -10 11 -5 0 -10 -4 -10 -8z"/>
<path d="M38126 28691 c-4 -5 3 -7 14 -4 23 6 26 13 6 13 -8 0 -17 -4 -20 -9z"/>
<path d="M38170 28690 c0 -5 10 -10 23 -10 18 0 19 2 7 10 -19 13 -30 13 -30
0z"/>
<path d="M38228 28689 c-5 -3 4 -6 21 -7 17 0 33 2 35 6 5 9 -42 9 -56 1z"/>
<path d="M38086 28665 c-3 -10 0 -12 12 -8 15 6 15 5 3 -10 -9 -11 -10 -17 -2
-17 6 0 11 2 11 4 0 2 3 11 6 19 3 8 -1 17 -10 20 -8 3 -17 0 -20 -8z"/>
<path d="M37938 28663 c12 -2 32 -2 45 0 12 2 2 4 -23 4 -25 0 -35 -2 -22 -4z"/>
<path d="M38000 28640 c0 -5 7 -7 15 -4 8 4 15 8 15 10 0 2 -7 4 -15 4 -8 0
-15 -4 -15 -10z"/>
<path d="M43415 28063 c-38 -20 -79 -62 -100 -103 -22 -43 -28 -168 -17 -375
l9 -170 3 125 c3 115 4 119 10 55 l6 -70 3 60 c2 33 6 83 11 110 l7 50 2 -42
1 -43 165 0 c180 0 170 -4 167 60 -1 19 1 21 8 10 5 -8 6 -18 4 -22 -3 -4 0
-8 7 -8 6 0 9 8 7 18 -3 11 0 19 8 19 7 0 10 -5 7 -10 -4 -7 1 -8 13 -4 10 4
3 -6 -16 -22 l-35 -30 -3 -746 -2 -746 29 -30 29 -29 1302 0 c1436 0 1336 -5
1359 62 8 21 11 260 11 740 0 614 -2 713 -15 738 -33 63 47 60 -1317 62 -684
1 -1169 5 -1078 8 l165 5 5 110 c7 124 21 167 69 208 l33 27 -414 0 c-359 -1
-417 -3 -443 -17z m-88 -143 c-1 -12 -5 -16 -10 -11 -5 5 -6 14 -3 20 11 16
15 13 13 -9z m1693 -955 c35 -36 72 -65 80 -65 9 0 31 16 50 35 19 19 41 35
50 35 8 0 51 -36 95 -80 l80 -80 -328 0 c-180 0 -327 3 -327 7 0 15 205 213
220 213 9 0 45 -29 80 -65z"/>
<path d="M43341 27564 c0 -11 3 -14 6 -6 3 7 2 16 -1 19 -3 4 -6 -2 -5 -13z"/>
<path d="M5541 27295 c-780 -112 -1386 -711 -1496 -1480 -19 -134 -19 -390 1
-523 20 -136 71 -312 127 -439 25 -56 43 -104 39 -107 -3 -3 0 -6 6 -6 6 0 21
-19 33 -42 12 -24 39 -69 60 -100 22 -32 39 -60 39 -63 0 -3 9 -14 20 -25 12
-12 18 -26 14 -32 -4 -6 -3 -8 3 -5 5 3 40 -30 78 -74 112 -131 298 -281 450
-364 39 -21 82 -47 98 -57 15 -11 27 -17 27 -13 0 3 15 -2 33 -12 17 -9 35
-16 40 -15 4 1 7 -3 7 -10 0 -6 3 -8 7 -5 3 4 12 2 20 -4 7 -6 13 -9 13 -6 0
5 58 -12 100 -30 22 -9 32 -12 70 -19 19 -3 36 -10 38 -14 2 -5 9 -7 16 -4 7
3 33 0 57 -6 24 -6 76 -13 114 -17 39 -3 77 -9 85 -13 8 -4 30 -7 48 -5 24 1
32 -2 28 -12 -3 -7 -1 -13 3 -13 5 0 18 -3 28 -6 16 -6 16 -5 -1 8 -18 14 -16
16 35 21 30 4 70 5 89 3 19 -2 40 0 45 5 6 4 54 10 108 12 56 3 103 10 112 17
8 6 30 12 50 13 19 1 35 5 35 10 0 4 5 5 11 1 8 -5 4 -13 -12 -26 -13 -11 -17
-16 -9 -12 8 4 28 7 45 7 25 -1 27 0 7 5 -26 8 -30 21 -10 33 19 13 36 11 18
-2 -12 -9 -10 -10 8 -6 14 3 21 1 20 -6 -2 -7 1 -13 6 -15 17 -5 15 28 -2 37
-11 7 2 8 41 4 47 -5 57 -3 57 10 0 8 -6 18 -12 21 -13 5 26 -1 67 -11 13 -3
16 -1 8 4 -9 6 -7 12 6 20 15 10 18 9 17 -5 -1 -11 7 -17 22 -18 12 -1 22 3
22 8 0 5 -10 6 -22 3 -18 -5 -20 -4 -8 4 8 6 11 11 6 11 -5 0 -2 8 5 17 12 15
12 16 -3 10 -25 -9 -23 0 3 13 15 9 24 8 37 -2 13 -11 15 -11 9 4 -5 14 -1 16
29 11 32 -5 35 -4 32 15 -1 12 2 22 7 22 6 1 20 11 33 22 12 12 22 17 22 12 0
-5 5 -2 10 6 5 8 10 11 10 5 0 -18 -18 -38 -28 -31 -6 3 -13 2 -16 -3 -3 -5 0
-11 8 -14 14 -6 59 37 49 47 -3 3 16 4 42 2 40 -3 46 -1 31 9 -13 10 -14 18
-6 39 12 34 20 33 14 -1 l-5 -26 19 23 c11 14 18 29 15 36 -2 6 3 11 11 11 8
0 12 -5 9 -11 -4 -6 1 -5 10 3 11 9 17 10 17 2 0 -6 7 -11 15 -11 8 0 15 5 15
10 0 6 -3 9 -7 8 -5 -2 -9 2 -10 7 -2 6 7 10 20 10 12 0 22 6 21 13 -2 29 -5
33 -15 26 -8 -5 -8 -9 1 -14 9 -5 9 -9 1 -14 -6 -4 -11 -2 -11 5 0 7 -8 5 -20
-6 -11 -10 -22 -16 -24 -14 -6 6 109 101 132 111 9 4 13 7 8 7 -6 1 3 14 19
31 15 16 31 28 34 26 3 -2 12 2 19 10 7 8 10 14 7 14 -4 0 15 27 41 60 26 33
48 60 50 60 8 0 -32 -60 -41 -60 -5 0 -3 -5 5 -11 13 -9 13 -10 -2 -6 -12 4
-19 -3 -26 -22 -12 -34 -51 -73 -65 -64 -6 4 -7 1 -2 -7 5 -8 4 -11 -3 -6 -7
4 -9 -5 -5 -26 6 -42 16 -53 12 -13 -3 21 0 29 9 27 8 -1 12 1 10 5 -5 11 49
62 57 55 3 -4 3 1 0 10 -4 11 1 20 14 28 12 6 21 18 21 28 0 14 2 15 10 2 6
-9 6 -18 0 -24 -6 -6 -10 -15 -10 -20 0 -6 11 1 25 16 27 30 34 48 10 28 -12
-10 -15 -10 -15 4 0 9 7 16 16 16 8 0 12 5 9 10 -4 6 -10 8 -13 6 -4 -2 -7 8
-6 22 1 16 7 26 14 24 20 -5 41 19 35 39 -4 11 -2 19 4 19 6 0 11 -8 12 -17 0
-11 3 -13 6 -5 2 6 9 12 14 12 6 0 7 -5 3 -12 -4 -7 -3 -8 5 -4 9 6 9 11 1 21
-7 9 -8 15 -1 19 6 4 7 15 1 30 -6 18 -3 29 17 52 13 16 21 22 17 14 -4 -8
-14 -23 -22 -32 -21 -25 -3 -22 24 3 21 20 23 66 2 53 -5 -3 -4 3 4 15 14 23
30 29 22 7 -3 -7 1 -16 8 -19 10 -3 14 4 13 23 0 16 -4 26 -10 22 -5 -3 -4 2
3 11 8 9 11 21 7 27 -3 5 -1 10 5 10 6 0 8 5 5 10 -3 6 2 10 11 10 14 0 15 -3
6 -12 -20 -20 -13 -32 8 -13 18 16 20 16 20 2 0 -10 4 -17 8 -17 4 0 8 9 8 19
0 11 -3 18 -6 16 -3 -2 -11 0 -18 4 -9 5 -8 12 4 27 14 17 15 17 10 1 -3 -10
-2 -15 4 -12 10 6 9 40 -2 50 -3 3 -11 -8 -18 -25 -7 -16 -17 -30 -22 -30 -6
0 -3 11 6 25 9 14 14 25 11 25 -3 0 0 6 7 14 10 11 17 11 28 3 9 -7 8 -4 -2 9
-17 20 -17 23 0 75 11 30 23 53 28 51 5 -2 10 5 12 15 3 15 1 16 -8 3 -10 -13
-11 -12 -6 3 3 10 6 21 6 23 0 3 4 3 8 0 4 -2 9 14 9 36 1 23 7 46 14 52 9 8
10 4 5 -16 -6 -28 7 -47 20 -27 4 8 3 9 -5 5 -11 -7 -9 17 5 62 6 21 -7 37
-17 21 -7 -11 -9 -10 -9 3 0 9 7 21 16 26 11 6 13 11 5 16 -14 9 -14 26 0 26
5 0 7 -4 4 -10 -3 -5 0 -10 8 -10 19 0 27 81 27 261 0 117 -2 139 -15 139 -11
0 -15 12 -16 48 -2 59 -6 100 -17 150 -5 22 -8 54 -7 72 2 18 0 28 -4 22 -4
-6 -12 15 -19 46 -19 84 -70 224 -114 314 -21 44 -35 85 -32 91 4 7 3 8 -1 4
-5 -4 -28 23 -52 60 -44 69 -52 90 -31 77 7 -4 8 -3 4 5 -4 6 -11 9 -16 6 -4
-3 -31 25 -58 62 -28 38 -62 79 -76 92 -14 13 -23 29 -19 35 3 6 3 9 0 5 -4
-3 -41 28 -84 69 -86 82 -238 201 -305 238 -234 131 -411 195 -648 234 -111
19 -383 21 -499 5z m502 -799 c340 -102 583 -354 679 -704 31 -111 31 -353 0
-464 -114 -415 -453 -705 -861 -736 -460 -35 -867 232 -1010 663 -150 451 54
952 475 1167 171 88 267 109 474 104 132 -3 168 -7 243 -30z m1215 -1913 c-16
-19 -29 -5 -16 17 9 13 14 16 20 7 4 -6 2 -17 -4 -24z m-496 -491 c3 -11 0
-19 -7 -19 -10 0 -12 13 -6 35 3 7 9 0 13 -16z m-157 -92 c3 -5 2 -10 -4 -10
-5 0 -13 5 -16 10 -3 6 -2 10 4 10 5 0 13 -4 16 -10z m-135 -55 c0 -2 -9 -9
-20 -15 -12 -6 -20 -7 -20 -1 0 5 8 12 18 14 9 3 18 5 20 6 1 0 2 -1 2 -4z"/>
<path d="M34734 27190 c-63 -20 -127 -72 -156 -130 -15 -30 -30 -64 -33 -75
-6 -18 -8 -16 -20 11 -21 51 -83 111 -131 130 -52 20 -146 15 -207 -11 -86
-36 -157 -138 -157 -227 0 -27 -3 -30 -22 -24 -13 4 -50 9 -83 12 -70 6 -113
-14 -141 -67 -25 -49 -16 -137 20 -183 l27 -36 -23 -33 c-34 -48 -37 -157 -6
-211 31 -53 88 -96 145 -111 l48 -12 6 -69 c10 -125 64 -183 187 -200 57 -7
62 -2 38 44 -13 26 -106 288 -106 299 0 3 8 -1 18 -10 87 -79 280 -66 519 37
l83 35 27 -34 27 -34 39 35 c44 41 75 54 123 54 101 0 117 -148 26 -251 l-30
-34 106 -150 c59 -82 114 -151 123 -153 21 -4 96 52 119 91 24 38 26 120 5
157 -20 34 -18 48 5 55 32 10 110 92 130 138 26 56 26 157 1 212 -10 23 -39
59 -64 81 -46 40 -46 42 -27 59 58 53 78 179 41 261 -28 61 -87 122 -130 134
-33 8 -52 6 -126 -14 -17 -5 -25 5 -49 55 -33 71 -84 126 -141 154 -45 22
-162 30 -211 15z"/>
<path d="M10173 26339 c-2 -23 3 -25 10 -4 4 8 3 16 -1 19 -4 3 -9 -4 -9 -15z"/>
<path d="M35370 25731 c-68 -23 -110 -42 -110 -51 0 -5 8 -17 18 -28 16 -20
19 -21 72 -7 30 8 62 15 71 15 22 0 29 -39 29 -164 0 -168 -42 -285 -138 -388
-105 -112 -283 -167 -388 -119 -89 40 -132 141 -150 351 -6 75 -6 76 21 88 25
12 27 16 21 54 -4 23 -9 44 -12 47 -8 8 -70 -26 -108 -59 -48 -43 -56 -79 -45
-203 14 -151 35 -243 74 -324 74 -150 198 -186 404 -117 214 71 374 231 445
444 48 144 57 321 21 407 -10 24 -27 39 -57 53 -53 24 -97 24 -168 1z"/>
<path d="M36044 25505 c-42 -47 -90 -146 -116 -242 -19 -67 -22 -104 -22 -268
0 -160 3 -206 22 -293 70 -323 211 -551 398 -645 144 -72 728 -312 949 -390
55 -20 150 -54 212 -76 l112 -40 43 31 c160 112 371 454 429 693 27 116 26
156 -9 176 -15 9 -90 56 -167 104 -125 78 -429 264 -620 380 -219 133 -600
347 -751 423 -99 50 -418 182 -439 182 -5 0 -24 -16 -41 -35z"/>
<path d="M34549 25316 c-164 -110 -268 -239 -568 -701 -57 -88 -118 -182 -136
-210 -58 -90 -246 -395 -377 -615 l-129 -214 22 -41 c125 -228 441 -496 677
-572 l84 -28 35 40 c19 22 90 101 158 175 67 74 152 169 189 212 l67 76 -50
274 c-28 150 -62 329 -76 397 -65 319 -69 354 -70 586 0 201 2 227 23 300 35
121 86 216 159 295 36 39 63 70 61 70 -2 0 -33 -20 -69 -44z"/>
<path d="M7505 25058 c-4 -13 -13 -26 -19 -30 -8 -5 -7 -8 2 -8 12 0 37 49 28
57 -2 3 -7 -6 -11 -19z"/>
<path d="M7433 24950 c-9 -14 -10 -21 -1 -26 7 -4 8 -3 4 4 -4 7 -1 12 8 12 9
0 16 7 16 15 0 21 -13 19 -27 -5z"/>
<path d="M7342 24654 c-1 -13 0 -24 2 -24 7 0 14 40 7 44 -4 3 -8 -6 -9 -20z"/>
<path d="M43747 24512 c-42 -28 -56 -53 -57 -98 0 -51 31 -88 86 -103 27 -8
835 -11 2707 -11 2348 0 2671 2 2697 15 42 21 60 53 60 104 0 37 -5 49 -36 77
l-35 34 -2697 0 c-2593 0 -2698 -1 -2725 -18z"/>
<path d="M7186 24497 c3 -10 9 -15 12 -12 3 3 0 11 -7 18 -10 9 -11 8 -5 -6z"/>
<path d="M7009 24305 c-1 -3 -3 -9 -4 -15 -1 -5 -3 -15 -4 -21 0 -6 -7 -9 -14
-6 -7 2 -26 -6 -42 -20 -17 -13 -23 -23 -15 -21 8 2 14 -3 13 -9 -2 -7 2 -13
7 -13 6 0 10 7 10 16 0 9 5 12 13 8 6 -4 9 -4 5 1 -4 4 3 16 17 27 13 10 23
27 22 38 -1 19 -5 26 -8 15z m-29 -49 c0 -2 -8 -10 -17 -17 -16 -13 -17 -12
-4 4 13 16 21 21 21 13z"/>
<path d="M6926 24171 c-15 -16 -15 -19 -2 -24 9 -4 15 -1 13 6 -1 7 3 11 10
10 7 -2 10 4 7 12 -8 19 -7 19 -28 -4z"/>
<path d="M4745 24121 c-3 -5 -2 -12 3 -15 5 -3 9 1 9 9 0 17 -3 19 -12 6z"/>
<path d="M6636 24013 c-14 -15 -4 -23 27 -19 17 2 38 4 45 5 7 0 10 6 7 11 -5
8 -11 7 -20 0 -10 -8 -19 -8 -33 -1 -11 6 -22 7 -26 4z"/>
<path d="M6520 23939 c-12 -8 -10 -9 9 -4 17 5 22 4 16 -5 -5 -9 -4 -11 4 -6
6 4 9 12 6 17 -8 12 -16 11 -35 -2z"/>
<path d="M10313 23930 c-77 -16 -139 -64 -179 -140 -26 -49 -25 -167 1 -237
40 -111 139 -205 252 -242 63 -21 70 -21 1361 -21 1065 1 1304 3 1335 14 136
49 201 178 163 325 -31 121 -112 217 -231 273 l-70 33 -1295 2 c-712 0 -1314
-3 -1337 -7z"/>
<path d="M6150 23830 c20 -13 33 -13 25 0 -3 6 -14 10 -23 10 -15 0 -15 -2 -2
-10z"/>
<path d="M5605 23789 c-11 -16 -1 -19 13 -3 7 8 8 14 3 14 -5 0 -13 -5 -16
-11z"/>
<path d="M5815 23780 l-30 -8 27 -1 c15 0 30 4 33 9 3 6 5 9 3 9 -2 -1 -16 -5
-33 -9z"/>
<path d="M5648 23773 c6 -2 18 -2 25 0 6 3 1 5 -13 5 -14 0 -19 -2 -12 -5z"/>
<path d="M38503 23417 c-56 -23 -104 -45 -108 -49 -4 -3 -22 -89 -40 -190 -19
-101 -64 -316 -100 -478 -117 -524 -145 -667 -147 -775 l-3 -100 62 -127 c34
-70 67 -153 74 -185 7 -32 13 -59 14 -60 1 -2 143 56 316 127 173 72 397 165
499 207 203 83 240 109 240 166 0 18 -25 94 -56 168 -96 230 -236 570 -389
939 -155 376 -169 400 -230 400 -16 -1 -76 -20 -132 -43z"/>
<path d="M2215 23399 c-4 -6 -5 -12 -2 -15 2 -3 7 2 10 11 7 17 1 20 -8 4z"/>
<path d="M3032 23240 c0 -14 2 -19 5 -12 2 6 2 18 0 25 -3 6 -5 1 -5 -13z"/>
<path d="M2123 23228 c-15 -20 -25 -38 -20 -38 3 0 12 11 21 25 17 26 16 35
-1 13z"/>
<path d="M2610 23195 c-10 -13 -9 -15 9 -15 12 0 21 6 21 15 0 8 -4 15 -9 15
-5 0 -14 -7 -21 -15z"/>
<path d="M2960 23190 c0 -5 5 -10 11 -10 5 0 7 5 4 10 -3 6 -8 10 -11 10 -2 0
-4 -4 -4 -10z"/>
<path d="M2997 23183 c-4 -3 -7 -17 -7 -30 0 -25 -26 -60 -32 -43 -4 14 -407
15 -421 1 -6 -6 -28 -11 -48 -11 -29 0 -38 -4 -42 -21 -3 -11 -15 -23 -26 -26
-18 -5 -21 -13 -21 -59 l0 -54 -80 0 c-72 0 -80 -2 -80 -19 0 -10 -9 -21 -20
-24 -20 -5 -29 -47 -10 -47 5 0 14 -9 20 -19 7 -15 7 -19 -5 -17 -17 2 -30 14
-30 27 0 5 -4 9 -10 10 -26 3 -43 20 -38 39 3 12 0 20 -6 20 -7 0 -9 5 -5 12
4 7 3 8 -4 4 -7 -4 -12 0 -13 11 0 11 -3 13 -6 5 -3 -7 3 -22 12 -32 9 -10 14
-23 11 -29 -4 -6 2 -16 14 -23 11 -7 20 -16 20 -20 0 -11 63 -73 72 -70 4 1 8
-2 8 -8 0 -13 223 -236 232 -232 5 1 8 -3 8 -9 0 -6 139 -150 308 -320 265
-265 316 -312 367 -335 78 -36 191 -44 265 -20 67 22 271 156 265 174 -4 12
-172 239 -185 252 -3 3 -46 59 -95 125 -49 66 -95 126 -102 133 -7 7 -13 17
-13 21 0 5 -10 19 -22 33 -13 13 -36 44 -53 68 -16 24 -42 57 -57 74 -15 17
-40 49 -55 73 -15 24 -31 43 -35 43 -4 0 -8 8 -8 18 0 10 -7 27 -15 38 -8 10
-15 29 -15 42 0 13 -5 32 -10 43 -6 10 -12 60 -14 109 -3 90 -6 106 -19 93z
m-27 -188 c-6 -30 -8 -33 -9 -13 -1 25 8 62 14 56 2 -2 -1 -21 -5 -43z m-652
-253 c2 -6 -4 -9 -12 -8 -20 3 -29 12 -32 32 -2 13 0 14 19 1 11 -7 23 -19 25
-25z m72 -72 c7 -14 6 -18 -5 -16 -18 3 -28 13 -31 31 -3 19 24 8 36 -15z m80
-80 c7 -14 6 -18 -5 -16 -18 3 -28 13 -31 31 -3 19 24 8 36 -15z"/>
<path d="M2285 22750 c3 -5 8 -10 11 -10 2 0 4 5 4 10 0 6 -5 10 -11 10 -5 0
-7 -4 -4 -10z"/>
<path d="M2365 22670 c3 -5 8 -10 11 -10 2 0 4 5 4 10 0 6 -5 10 -11 10 -5 0
-7 -4 -4 -10z"/>
<path d="M2445 22590 c3 -5 8 -10 11 -10 2 0 4 5 4 10 0 6 -5 10 -11 10 -5 0
-7 -4 -4 -10z"/>
<path d="M2961 23134 c0 -11 3 -14 6 -6 3 7 2 16 -1 19 -3 4 -6 -2 -5 -13z"/>
<path d="M2098 23006 c-20 -15 -25 -31 -7 -20 9 5 10 -1 5 -22 -5 -21 -4 -25
4 -14 5 8 10 26 11 40 1 24 1 24 11 -5 6 -16 17 -39 24 -50 12 -17 14 -17 14
-2 0 9 -4 17 -10 17 -5 0 -12 16 -16 35 -7 38 -11 41 -36 21z"/>
<path d="M2140 23001 c0 -6 4 -13 10 -16 6 -3 7 1 4 9 -7 18 -14 21 -14 7z"/>
<path d="M8368 22983 c6 -2 18 -2 25 0 6 3 1 5 -13 5 -14 0 -19 -2 -12 -5z"/>
<path d="M2205 22830 c3 -5 8 -10 11 -10 2 0 4 5 4 10 0 6 -5 10 -11 10 -5 0
-7 -4 -4 -10z"/>
<path d="M11760 22831 c-101 -31 -172 -114 -185 -218 -20 -146 84 -311 243
-386 l67 -32 2970 0 2970 0 45 21 c25 11 60 35 78 53 56 57 67 86 67 186 0 77
-4 98 -27 148 -38 80 -117 160 -197 200 l-66 32 -2970 2 c-1633 1 -2981 -2
-2995 -6z"/>
<path d="M18734 22824 c-149 -53 -206 -229 -127 -396 56 -117 168 -205 294
-228 37 -7 649 -9 1830 -8 1684 3 1776 4 1814 21 50 23 101 70 128 122 31 57
30 178 -2 259 -31 77 -126 176 -207 214 l-59 27 -1815 2 c-1572 1 -1821 0
-1856 -13z"/>
<path d="M41878 22539 c-403 -59 -775 -292 -998 -625 -92 -138 -133 -220 -180
-363 -52 -158 -70 -273 -70 -456 0 -184 18 -298 71 -460 72 -217 185 -401 349
-565 184 -184 385 -305 626 -375 202 -58 158 -57 1624 -56 1499 2 1433 -1
1651 71 231 76 405 184 579 359 213 213 337 443 402 745 31 144 31 416 0 562
-64 299 -189 531 -402 745 -220 221 -482 359 -778 410 -109 18 -170 19 -1465
18 -744 -1 -1378 -5 -1409 -10z m484 -823 c225 -41 348 -187 348 -415 0 -277
-165 -429 -471 -434 l-99 -2 0 -196 0 -196 -37 -7 c-49 -8 -108 -8 -167 0
l-46 7 0 618 0 619 23 5 c70 16 360 16 449 1z m1980 0 c155 -28 259 -101 315
-221 26 -57 28 -68 28 -200 0 -130 -2 -144 -26 -195 -74 -156 -212 -230 -436
-233 l-93 -2 0 -197 0 -196 -66 -7 c-36 -4 -94 -4 -127 1 l-62 9 -3 617 -2
618 22 5 c71 16 361 16 450 1z m-1328 -2 l46 -7 0 -238 0 -239 205 0 205 0 0
239 0 238 38 7 c20 3 60 6 87 6 28 0 67 -3 88 -6 l37 -7 0 -617 0 -617 -37 -7
c-21 -3 -60 -6 -88 -6 -27 0 -67 3 -87 6 l-38 7 0 263 0 264 -205 0 -205 0 0
-264 0 -265 -56 -7 c-63 -7 -183 1 -196 14 -4 4 -7 282 -6 617 l3 610 30 6
c42 9 123 10 179 3z"/>
<path d="M42158 21513 c-16 -4 -18 -23 -18 -219 l0 -214 75 0 c159 0 229 65
229 215 0 91 -13 125 -68 173 -47 41 -152 63 -218 45z"/>
<path d="M44148 21514 c-16 -5 -18 -24 -18 -221 l0 -215 88 4 c76 3 94 7 129
30 62 41 86 99 82 197 -3 64 -9 85 -32 119 -15 23 -44 51 -66 61 -38 20 -149
35 -183 25z"/>
<path d="M9461 22503 c-1 -6 -4 -20 -7 -30 -5 -17 -5 -17 6 0 6 10 9 23 6 30
-3 9 -5 9 -5 0z"/>
<path d="M9487 22462 c1 -8 3 -20 3 -28 0 -8 4 -14 9 -14 5 0 8 11 7 24 0 13
-4 22 -8 20 -3 -2 -8 -1 -11 3 -2 5 -2 2 0 -5z"/>
<path d="M9448 22406 c4 -27 6 -28 13 -11 11 30 10 42 -4 42 -9 0 -12 -10 -9
-31z"/>
<path d="M9020 22344 c0 -8 5 -12 10 -9 6 3 10 10 10 16 0 5 -4 9 -10 9 -5 0
-10 -7 -10 -16z"/>
<path d="M8993 22334 c-3 -8 -2 -19 3 -24 5 -5 10 1 10 16 2 27 -4 31 -13 8z"/>
<path d="M9026 22297 c3 -10 9 -15 12 -12 3 3 0 11 -7 18 -10 9 -11 8 -5 -6z"/>
<path d="M9531 22264 c0 -11 3 -14 6 -6 3 7 2 16 -1 19 -3 4 -6 -2 -5 -13z"/>
<path d="M9542 22210 c0 -19 2 -27 5 -17 2 9 2 25 0 35 -3 9 -5 1 -5 -18z"/>
<path d="M9562 22100 c0 -14 2 -19 5 -12 2 6 2 18 0 25 -3 6 -5 1 -5 -13z"/>
<path d="M9567 22053 c3 -7 6 -13 8 -13 2 0 5 6 8 13 3 8 -1 14 -8 14 -7 0
-11 -6 -8 -14z"/>
<path d="M9095 22040 c3 -5 8 -10 11 -10 2 0 4 5 4 10 0 6 -5 10 -11 10 -5 0
-7 -4 -4 -10z"/>
<path d="M9080 21984 c0 -8 5 -12 10 -9 6 3 10 10 10 16 0 5 -4 9 -10 9 -5 0
-10 -7 -10 -16z"/>
<path d="M9090 21930 c1 -8 7 -24 15 -34 19 -25 19 -16 0 20 -8 16 -15 22 -15
14z"/>
<path d="M9621 21854 c0 -11 3 -14 6 -6 3 7 2 16 -1 19 -3 4 -6 -2 -5 -13z"/>
<path d="M9112 21840 c0 -14 2 -19 5 -12 2 6 2 18 0 25 -3 6 -5 1 -5 -13z"/>
<path d="M13513 21740 c-231 -46 -275 -343 -78 -529 30 -29 81 -64 112 -79
l58 -27 3005 -3 c3375 -2 3063 -10 3146 74 175 174 14 519 -264 565 -71 11
-5920 10 -5979 -1z"/>
<path d="M20510 21739 c-65 -13 -130 -57 -165 -113 -28 -46 -30 -57 -30 -140
0 -83 3 -98 32 -156 41 -83 110 -152 193 -193 l65 -32 1585 0 1585 0 40 22
c52 28 100 78 120 127 17 40 22 140 9 192 -22 91 -107 201 -192 247 -110 60
-26 57 -1682 56 -833 -1 -1535 -5 -1560 -10z"/>
<path d="M24412 21739 c-89 -17 -162 -85 -188 -175 -45 -157 53 -347 224 -431
l57 -28 514 -3 c558 -3 562 -3 634 52 40 31 82 105 92 162 3 23 2 67 -4 98
-29 159 -158 291 -319 325 -63 13 -943 14 -1010 0z"/>
<path d="M16442 20635 c-59 -18 -106 -57 -139 -113 -25 -41 -28 -57 -28 -132
0 -75 4 -93 32 -152 52 -111 151 -192 269 -223 54 -14 397 -15 3210 -13 l3149
3 55 30 c30 17 69 49 86 72 115 151 21 409 -183 506 l-68 32 -3170 2 c-2625 1
-3177 -1 -3213 -12z"/>
<path d="M23615 20632 c-106 -35 -175 -150 -161 -268 18 -151 113 -275 256
-336 l55 -23 1245 -3 c859 -2 1261 1 1297 8 136 29 220 161 194 307 -25 131
-108 239 -229 296 l-67 32 -1270 2 c-1163 2 -1274 1 -1320 -15z"/>
<path d="M26999 20636 c-85 -30 -142 -98 -161 -189 -29 -138 57 -309 196 -391
92 -54 129 -57 563 -54 380 3 400 4 443 24 121 56 173 180 136 324 -30 115
-110 211 -225 267 l-56 28 -430 2 c-335 2 -438 0 -466 -11z"/>
<path d="M34050 19812 c0 -12 19 -26 26 -19 2 2 -2 10 -11 17 -9 8 -15 8 -15
2z"/>
<path d="M4857 19782 c-10 -10 -17 -22 -17 -26 0 -4 -22 -30 -50 -59 -27 -29
-50 -56 -50 -62 0 -5 4 -3 10 5 5 8 12 11 16 7 9 -9 -16 -38 -30 -35 -6 2 -20
-6 -31 -17 -21 -21 -21 -21 -2 -40 19 -20 19 -20 7 5 -12 22 -11 23 2 13 19
-17 31 -4 15 15 -10 13 -9 14 1 8 18 -11 53 34 45 58 -4 15 -2 18 11 13 10 -4
15 -3 11 3 -3 6 -1 10 4 10 6 0 10 3 10 8 -3 18 2 35 8 29 6 -7 12 0 48 56 20
31 16 36 -8 9z"/>
<path d="M4650 19535 c-13 -14 -19 -25 -13 -25 6 0 13 3 16 8 2 4 2 0 -1 -8
-13 -40 -14 -73 -3 -66 7 4 9 17 6 29 -5 16 -4 18 3 8 8 -11 12 -9 22 9 7 12
8 20 3 17 -4 -3 -9 6 -9 19 -2 23 -1 24 12 7 7 -10 14 -13 14 -7 0 6 -6 17
-13 23 -11 8 -19 5 -37 -14z"/>
<path d="M11148 19540 c-82 -25 -149 -90 -169 -164 -18 -66 -6 -173 25 -235
34 -66 103 -142 161 -176 96 -56 95 -56 926 -53 854 3 803 -1 881 75 51 50 72
115 66 207 -9 135 -95 257 -225 319 l-68 32 -785 2 c-432 1 -797 -2 -812 -7z"/>
<path d="M15807 19536 c-121 -44 -182 -158 -158 -296 21 -116 103 -228 206
-282 92 -48 77 -48 1136 -48 1126 0 1065 -4 1145 76 146 145 59 428 -163 532
l-58 27 -1035 2 c-847 2 -1042 0 -1073 -11z"/>
<path d="M4612 19484 c-7 -8 -8 -14 -3 -14 10 0 25 19 20 25 -2 1 -10 -3 -17
-11z"/>
<path d="M4588 19442 c5 -15 34 -12 39 3 2 6 -8 10 -21 10 -15 0 -22 -5 -18
-13z"/>
<path d="M34130 19440 c0 -5 5 -10 11 -10 5 0 7 5 4 10 -3 6 -8 10 -11 10 -2
0 -4 -4 -4 -10z"/>
<path d="M4544 19411 c-10 -14 -17 -34 -17 -44 1 -11 -4 -17 -15 -15 -11 2
-18 -5 -20 -19 -2 -13 2 -23 8 -23 7 0 10 7 6 15 -3 9 0 15 10 15 9 0 12 -5 8
-12 -4 -7 -3 -8 5 -4 6 4 9 12 6 17 -4 5 -2 9 4 9 24 0 15 -28 -20 -63 -22
-21 -39 -44 -39 -50 0 -7 5 -4 11 6 5 9 15 17 20 17 6 0 1 -13 -11 -30 -12
-16 -18 -30 -13 -30 10 0 53 65 53 80 0 5 4 10 8 10 5 0 13 10 19 23 11 26 -5
66 -25 59 -11 -3 -11 0 -1 16 7 12 15 19 18 17 2 -3 9 -1 15 5 7 5 18 5 26 0
11 -7 11 -11 1 -24 -7 -9 -17 -13 -22 -10 -5 3 -9 -2 -9 -10 0 -22 9 -20 31 6
26 29 24 42 -11 55 -26 10 -31 8 -46 -16z"/>
<path d="M4466 19307 c4 -12 2 -16 -7 -14 -8 2 -11 2 -6 0 13 -8 7 -25 -8 -20
-8 4 -17 2 -19 -2 -3 -5 4 -8 16 -7 28 1 47 31 30 48 -11 11 -12 10 -6 -5z"/>
<path d="M34166 19273 c-6 -14 -5 -15 5 -6 7 7 10 15 7 18 -3 3 -9 -2 -12 -12z"/>
<path d="M34176 19237 c3 -10 9 -15 12 -12 3 3 0 11 -7 18 -10 9 -11 8 -5 -6z"/>
<path d="M4381 19214 c-12 -27 -11 -28 4 -12 10 9 16 21 13 28 -2 7 -10 -1
-17 -16z"/>
<path d="M4378 19174 c-4 -3 -13 -7 -22 -8 -14 -2 -96 -87 -136 -141 -14 -18
-13 -19 1 -8 9 7 19 9 23 5 4 -4 6 -2 4 3 -1 6 10 26 25 45 23 27 31 31 39 19
7 -11 9 -9 5 7 -5 24 17 59 32 49 6 -3 11 -2 11 4 0 6 7 8 15 5 9 -4 15 0 15
10 0 17 -3 20 -12 10z"/>
<path d="M4407 19166 c-4 -11 -3 -15 4 -10 7 4 9 -1 5 -17 -3 -13 -3 -19 0
-12 3 7 11 10 18 7 7 -3 20 6 28 18 14 22 14 24 -2 24 -10 0 -16 -6 -13 -13 7
-18 -8 -16 -22 3 -11 16 -12 16 -18 0z"/>
<path d="M4337 19123 c-11 -10 -8 -33 4 -33 5 0 7 5 4 10 -3 6 -1 10 4 10 6 0
11 5 11 10 0 11 -13 13 -23 3z"/>
<path d="M4356 19075 c-11 -19 -16 -38 -12 -42 4 -4 9 3 13 15 3 12 9 22 14
22 14 0 11 -24 -6 -46 -8 -10 -15 -23 -15 -27 0 -14 21 4 31 26 5 12 18 36 28
53 14 23 15 31 5 31 -7 0 -13 -3 -12 -6 0 -3 0 -15 -2 -26 l-1 -20 -8 20 c-5
11 -7 23 -4 28 2 4 0 7 -4 7 -5 0 -17 -16 -27 -35z"/>
<path d="M34195 19101 c-6 -11 13 -26 22 -17 4 3 1 6 -6 6 -7 0 -9 5 -6 10 3
6 4 10 1 10 -3 0 -7 -4 -11 -9z"/>
<path d="M34170 19080 c0 -5 5 -10 11 -10 5 0 7 5 4 10 -3 6 -8 10 -11 10 -2
0 -4 -4 -4 -10z"/>
<path d="M46107 19080 c-46 -14 -93 -56 -116 -103 l-21 -44 2 -1280 3 -1280
28 -40 c15 -22 45 -49 66 -61 38 -22 44 -22 544 -22 l506 0 208 -327 c114
-180 227 -347 249 -370 37 -38 46 -43 87 -43 37 0 53 6 81 30 18 17 132 183
252 370 l218 340 503 0 c477 -1 504 0 540 19 43 22 64 42 87 88 14 29 16 151
16 1308 0 1234 -1 1277 -19 1313 -24 47 -56 77 -103 97 -33 13 -208 15 -1570
14 -843 0 -1546 -5 -1561 -9z m1503 -399 c44 -32 86 -96 111 -172 22 -67 24
-90 24 -239 -1 -149 -7 -201 -32 -266 -4 -12 46 -14 353 -14 332 0 362 -2 401
-20 63 -28 85 -70 80 -149 -3 -61 -5 -66 -45 -101 l-42 -38 55 -4 c59 -5 94
-28 121 -80 33 -63 4 -166 -56 -201 -17 -10 -50 -17 -82 -17 l-53 0 30 -19
c55 -34 69 -57 73 -124 5 -101 -40 -153 -143 -164 l-56 -6 29 -17 c62 -38 81
-156 35 -218 -47 -63 -32 -61 -559 -62 -518 -1 -517 -1 -601 54 -22 15 -49 40
-62 56 l-22 30 3 458 c3 534 0 516 112 641 102 114 119 165 136 406 14 195 30
253 80 278 39 19 71 16 110 -12z"/>
<path d="M4276 19051 c-16 -17 -16 -19 6 -25 34 -9 50 -7 43 5 -4 6 -13 8 -21
5 -8 -3 -14 -1 -14 4 0 6 5 10 10 10 6 0 10 5 10 10 0 16 -15 12 -34 -9z"/>
<path d="M34170 19046 c0 -2 7 -7 16 -10 8 -3 12 -2 9 4 -6 10 -25 14 -25 6z"/>
<path d="M4323 18981 c0 -24 3 -27 14 -16 7 8 10 21 7 29 -10 25 -21 18 -21
-13z"/>
<path d="M4171 18963 c-17 -21 -31 -43 -31 -50 0 -7 -7 -10 -17 -7 -11 4 -14
3 -7 -3 6 -4 14 -17 18 -28 6 -16 9 -17 16 -5 5 8 7 23 4 33 -3 11 6 31 25 53
17 19 31 37 31 39 0 11 -10 3 -39 -32z"/>
<path d="M34199 18972 c-3 -20 -2 -29 4 -23 5 5 7 19 5 32 -3 20 -5 19 -9 -9z"/>
<path d="M4213 18965 l-21 -25 23 0 c15 0 26 -7 30 -20 7 -23 21 -26 28 -7 2
6 8 9 12 5 11 -10 -4 -28 -24 -28 -10 0 -21 -9 -24 -20 -3 -11 -1 -18 4 -14 5
3 9 -2 9 -10 0 -8 -9 -17 -19 -21 -11 -3 -23 -14 -26 -25 -7 -23 -35 -34 -49
-20 -7 7 -7 20 2 42 15 40 8 47 -17 17 -21 -25 -28 -55 -11 -44 5 3 8 -7 5
-24 -2 -20 2 -31 12 -35 12 -5 13 -9 3 -22 -9 -10 -10 -18 -3 -25 8 -8 13 -7
17 0 4 6 1 11 -6 11 -10 0 -9 3 1 9 12 8 12 12 2 25 -10 12 -10 16 -2 16 7 0
19 7 28 15 8 8 19 13 24 10 5 -4 9 -1 9 5 0 7 12 26 26 43 15 18 22 33 15 35
-6 2 -11 8 -11 13 0 4 6 6 13 3 20 -7 44 43 28 59 -9 9 -14 9 -21 -3 -11 -18
-21 -9 -29 29 l-6 30 -22 -24z m-58 -195 c3 -5 1 -10 -4 -10 -6 0 -11 5 -11
10 0 6 2 10 4 10 3 0 8 -4 11 -10z"/>
<path d="M34245 18869 c-4 -6 -5 -12 -2 -15 2 -3 7 2 10 11 7 17 1 20 -8 4z"/>
<path d="M4117 18854 c6 -15 23 -19 23 -5 0 5 -7 11 -14 14 -10 4 -13 1 -9 -9z"/>
<path d="M4190 18845 c0 -7 -7 -18 -16 -23 -10 -5 -14 -15 -10 -21 5 -8 14 -4
27 13 21 26 25 46 9 46 -5 0 -10 -7 -10 -15z"/>
<path d="M34256 18782 c-3 -5 1 -9 9 -9 8 0 12 4 9 9 -3 4 -7 8 -9 8 -2 0 -6
-4 -9 -8z"/>
<path d="M34250 18739 c-8 -14 -8 -24 -1 -33 6 -7 7 -17 3 -22 -4 -4 0 -3 9 4
9 6 18 9 21 7 3 -3 3 7 0 22 l-6 28 -6 -25 c-4 -16 -8 -21 -13 -13 -5 7 -3 22
3 33 6 11 8 20 6 20 -3 0 -10 -9 -16 -21z"/>
<path d="M34260 18600 c0 -6 4 -9 9 -6 5 4 12 1 14 -4 3 -6 4 -5 3 2 -3 15
-26 23 -26 8z"/>
<path d="M34242 18575 c0 -16 2 -22 5 -12 2 9 2 23 0 30 -3 6 -5 -1 -5 -18z"/>
<path d="M34323 18458 c-2 -16 1 -18 10 -9 7 7 8 14 1 21 -6 6 -10 2 -11 -12z"/>
<path d="M16050 18449 c-57 -11 -116 -52 -155 -108 -28 -40 -30 -48 -30 -140
0 -89 3 -102 33 -163 38 -78 106 -144 190 -185 l57 -28 1880 -3 c1395 -2 1891
0 1922 9 23 6 61 27 84 47 191 164 52 511 -229 571 -65 14 -3682 14 -3752 0z"/>
<path d="M20713 18450 c-58 -12 -94 -32 -136 -79 -131 -145 -48 -410 161 -513
l67 -33 1050 -3 c705 -2 1062 0 1086 7 155 45 216 231 131 403 -55 112 -163
195 -281 218 -65 12 -2015 12 -2078 0z"/>
<path d="M34325 18360 c4 -108 3 -104 18 -91 8 6 17 8 20 4 4 -3 7 -3 7 1 0 4
-10 16 -22 26 -21 17 -21 18 -4 36 16 16 16 19 3 29 -11 8 -13 15 -5 29 7 13
7 17 0 12 -6 -3 -12 2 -15 11 -2 10 -3 -16 -2 -57z m25 -4 c0 -3 -4 -8 -10
-11 -5 -3 -10 -1 -10 4 0 6 5 11 10 11 6 0 10 -2 10 -4z"/>
<path d="M34345 18310 c3 -5 8 -10 11 -10 2 0 4 5 4 10 0 6 -5 10 -11 10 -5 0
-7 -4 -4 -10z"/>
<path d="M34343 18235 c-6 -14 -7 -23 -2 -19 5 3 9 -2 9 -11 0 -11 -5 -15 -15
-11 -10 4 -15 -1 -15 -16 0 -17 3 -19 12 -10 16 16 29 15 22 -2 -3 -8 -1 -17
4 -20 5 -3 12 6 15 19 2 14 0 28 -4 31 -5 3 -9 10 -9 16 0 6 7 5 18 -3 16 -13
16 -13 0 7 -20 23 -24 39 -8 29 6 -3 10 -1 10 4 0 21 -25 11 -37 -14z"/>
<path d="M34380 18150 c0 -5 5 -10 10 -10 6 0 10 5 10 10 0 6 -4 10 -10 10 -5
0 -10 -4 -10 -10z"/>
<path d="M34401 18044 c0 -11 3 -14 6 -6 3 7 2 16 -1 19 -3 4 -6 -2 -5 -13z"/>
<path d="M16237 17346 c-114 -41 -174 -137 -165 -266 11 -154 119 -286 276
-339 l62 -21 2747 2 2748 3 44 23 c76 41 117 98 130 183 22 134 -49 282 -173
364 -105 70 138 65 -2891 64 -2263 0 -2747 -2 -2778 -13z"/>
<path d="M22688 17345 c-195 -72 -218 -336 -44 -508 29 -28 79 -64 116 -81
l65 -31 1105 0 c1059 0 1106 1 1140 19 49 26 88 64 113 111 18 32 22 57 22
125 0 76 -4 93 -33 152 -40 83 -105 149 -186 191 l-61 32 -1100 2 c-909 1
-1106 -1 -1137 -12z"/>
<path d="M25727 17346 c-168 -61 -212 -284 -88 -457 45 -63 81 -93 161 -135
l55 -29 560 -3 c385 -2 576 0 611 8 104 22 184 128 184 242 0 161 -110 314
-265 369 -51 18 -86 19 -617 19 -444 -1 -571 -4 -601 -14z"/>
<path d="M11744 16236 c-96 -45 -140 -128 -132 -254 7 -131 98 -260 228 -321
l55 -26 789 -3 c879 -3 853 -4 922 64 58 58 69 89 69 189 0 79 -3 97 -29 150
-36 73 -114 153 -187 191 l-54 29 -805 3 -805 2 -51 -24z"/>
<path d="M16434 16246 c-46 -20 -103 -74 -126 -120 -25 -48 -30 -157 -10 -223
32 -105 140 -216 248 -254 51 -18 102 -19 1076 -19 695 0 1035 4 1061 11 24 6
59 30 92 62 45 44 55 61 66 111 15 70 4 155 -31 229 -30 64 -116 149 -187 183
l-58 29 -1050 2 c-862 2 -1056 0 -1081 -11z"/>
<path d="M16671 15158 c-70 -20 -127 -73 -157 -145 -23 -53 -20 -156 5 -224
45 -118 166 -224 285 -249 35 -7 641 -9 1916 -8 l1865 3 40 22 c47 25 85 64
111 113 14 26 19 57 19 120 0 72 -4 94 -27 143 -37 79 -114 157 -195 198 l-67
34 -1880 2 c-1208 1 -1893 -2 -1915 -9z"/>
<path d="M21316 15155 c-122 -43 -186 -169 -157 -307 7 -35 24 -84 38 -111 35
-64 120 -142 190 -175 l58 -27 1035 -3 c763 -2 1049 0 1089 9 45 9 64 21 107
64 62 62 78 108 72 210 -8 118 -69 221 -170 287 -110 72 -36 68 -1187 68 -863
-1 -1043 -3 -1075 -15z"/>
<path d="M28765 15110 c-3 -5 1 -10 10 -10 9 0 13 5 10 10 -3 6 -8 10 -10 10
-2 0 -7 -4 -10 -10z"/>
<path d="M47618 14313 c-10 -2 -18 -5 -18 -6 0 -1 -84 -250 -186 -552 -222
-656 -228 -674 -219 -683 9 -10 148 -15 198 -8 l43 7 91 267 c50 147 144 425
210 617 99 292 116 351 103 357 -17 7 -195 8 -222 1z"/>
<path d="M17654 14070 l-781 -5 -49 -30 c-30 -19 -60 -49 -79 -80 -28 -45 -30
-56 -30 -139 0 -77 4 -99 26 -146 38 -82 109 -154 187 -192 l67 -33 780 -6
c429 -4 1676 -6 2770 -5 l1990 1 48 24 c55 27 111 88 128 139 20 60 7 188 -25
251 -34 66 -104 142 -161 176 -100 58 19 55 -2125 53 -1081 -2 -2316 -5 -2746
-8z"/>
<path d="M23357 14069 c-90 -21 -157 -85 -183 -175 -40 -140 44 -323 187 -407
101 -59 67 -58 1235 -55 l1069 3 43 23 c105 56 137 110 136 232 0 159 -74 274
-222 347 l-76 38 -1075 2 c-611 1 -1092 -3 -1114 -8z"/>
<path d="M26372 14061 c-122 -42 -185 -157 -162 -297 26 -158 151 -290 308
-323 35 -7 229 -11 583 -11 503 0 532 1 586 20 69 24 115 66 144 133 68 160
-46 395 -228 469 l-58 23 -560 2 c-523 3 -564 1 -613 -16z"/>
<path d="M46745 13929 c-192 -76 -354 -140 -358 -141 -12 -5 -20 -178 -10
-223 l9 -40 354 -141 c195 -78 359 -138 363 -134 4 4 6 58 5 120 l-3 113 -252
87 -253 86 253 91 252 91 3 108 c1 59 -1 111 -5 115 -4 4 -165 -55 -358 -132z"/>
<path d="M47935 14058 c-3 -8 -4 -63 -3 -122 l3 -109 252 -85 252 -86 -232
-83 c-128 -46 -242 -88 -254 -93 -22 -9 -23 -15 -23 -119 0 -60 3 -112 8 -115
4 -2 28 4 52 14 39 17 362 144 596 235 68 26 72 29 78 64 8 47 8 127 0 184 -6
45 -6 45 -73 70 -62 24 -612 242 -638 254 -7 3 -15 -1 -18 -9z"/>
<path d="M49647 13159 c6 -23 9 -24 16 -5 3 8 0 17 -7 19 -10 4 -12 -1 -9 -14z"/>
<path d="M49640 13090 c-9 -6 -10 -10 -3 -10 6 0 15 5 18 10 8 12 4 12 -15 0z"/>
<path d="M12430 12971 c-78 -24 -140 -79 -166 -148 -25 -65 -16 -183 20 -256
38 -78 114 -153 195 -191 l66 -31 800 0 800 0 41 22 c168 90 179 323 24 487
-31 33 -77 67 -118 87 l-67 34 -785 2 c-432 1 -796 -2 -810 -6z"/>
<path d="M17085 12964 c-55 -19 -111 -67 -138 -117 -33 -63 -30 -190 6 -270
34 -75 128 -169 204 -205 l58 -27 1050 0 c1005 0 1051 1 1085 19 49 26 88 64
113 111 18 32 22 57 22 125 -1 75 -5 93 -33 151 -38 80 -119 159 -199 197
l-58 27 -1035 2 c-880 1 -1041 -1 -1075 -13z"/>
<path d="M49536 12971 c-3 -5 1 -11 9 -14 9 -4 12 -1 8 9 -6 16 -10 17 -17 5z"/>
<path d="M45565 12850 c-2 -3 0 -12 6 -20 6 -11 9 -12 9 -2 0 7 4 11 8 8 5 -3
9 1 9 8 0 13 -25 18 -32 6z"/>
<path d="M49480 12846 c0 -8 4 -17 9 -20 5 -4 7 3 4 14 -6 23 -13 26 -13 6z"/>
<path d="M46000 12829 c0 -7 -30 -10 -87 -8 -95 3 -123 -6 -176 -55 -15 -14
-40 -26 -54 -26 -23 0 -24 -2 -12 -17 12 -16 12 -17 -2 -6 -9 7 -18 10 -22 7
-3 -3 -4 2 -2 13 2 10 4 21 4 26 1 4 6 7 12 7 5 0 7 -5 3 -12 -5 -7 -3 -8 5
-4 18 11 4 21 -30 22 -22 0 -26 -3 -18 -13 6 -7 9 -19 6 -27 -3 -8 5 -18 19
-25 16 -7 22 -16 18 -24 -5 -8 -2 -7 9 2 15 12 17 12 11 -4 -14 -36 177 -189
350 -281 207 -109 378 -154 616 -160 l165 -4 -68 19 c-79 22 -198 77 -264 122
-108 74 -157 124 -311 314 -4 6 -11 17 -15 25 -4 8 -18 33 -32 55 -14 22 -28
46 -31 53 -8 15 -94 17 -94 1z"/>
<path d="M45566 12795 c4 -8 12 -15 20 -15 20 0 17 7 -6 20 -16 9 -18 8 -14
-5z"/>
<path d="M49445 12790 c-3 -5 -2 -10 4 -10 5 0 13 5 16 10 3 6 2 10 -4 10 -5
0 -13 -4 -16 -10z"/>
<path d="M45590 12766 c0 -2 8 -10 18 -17 15 -13 16 -12 3 4 -13 16 -21 21
-21 13z"/>
<path d="M49320 12681 c0 -6 -9 -8 -20 -6 -12 2 -18 0 -14 -6 3 -6 9 -8 12 -5
3 3 11 1 19 -6 10 -8 17 -8 26 1 9 10 8 11 -6 5 -13 -5 -16 -2 -11 10 3 9 3
16 0 16 -3 0 -6 -4 -6 -9z"/>
<path d="M49246 12585 c-11 -8 -15 -15 -9 -15 6 0 16 7 23 15 16 19 11 19 -14
0z"/>
<path d="M49189 12533 c-13 -16 -12 -17 4 -4 9 7 17 15 17 17 0 8 -8 3 -21
-13z"/>
<path d="M12622 11871 c-138 -48 -201 -200 -148 -359 38 -112 146 -216 263
-252 64 -20 89 -20 1662 -20 1806 0 1668 -6 1753 79 162 162 45 473 -210 551
-63 20 -97 20 -1666 20 -1527 -1 -1603 -2 -1654 -19z"/>
<path d="M49206 9535 c-3 -9 -6 -22 -5 -28 0 -7 5 -1 10 12 5 13 8 26 5 28 -2
2 -6 -3 -10 -12z"/>
<path d="M49195 9405 c3 -41 2 -54 -4 -40 -7 14 -10 16 -11 5 -1 -8 -5 -36 -9
-62 -5 -28 -4 -48 1 -48 5 0 6 -6 2 -12 -4 -7 -3 -9 1 -5 5 4 8 28 6 52 -2 35
1 45 13 45 12 0 16 11 16 48 0 26 -5 54 -10 62 -7 10 -9 -3 -5 -45z"/>
<path d="M49201 9253 c0 -5 4 -17 9 -28 8 -18 9 -17 9 8 1 15 -3 27 -9 27 -5
0 -10 -3 -9 -7z"/>
<path d="M49171 9205 c-1 -24 -3 -27 -11 -15 -8 11 -9 8 -4 -11 3 -15 1 -30
-5 -33 -6 -4 -11 -13 -11 -19 0 -7 8 -3 16 8 15 19 15 19 9 -6 -4 -16 -2 -30
4 -33 6 -4 11 -18 11 -32 0 -37 18 -29 29 14 13 46 14 92 1 112 -6 10 -10 11
-10 3 0 -25 -19 -13 -23 15 l-4 27 -2 -30z m32 -45 c3 16 5 11 5 -15 0 -22 -3
-49 -8 -60 -7 -17 -9 -16 -9 10 -1 18 -4 25 -9 18 -4 -6 -8 7 -8 29 -1 39 -1
40 11 18 l13 -24 5 24z"/>
<path d="M49141 9080 c-1 -8 -4 -26 -7 -40 -5 -19 -4 -22 5 -14 7 6 11 24 8
40 -2 16 -5 22 -6 14z"/>
<path d="M49203 8900 c0 -25 2 -35 4 -22 2 12 2 32 0 45 -2 12 -4 2 -4 -23z"/>
<path d="M49092 8785 c0 -16 -3 -52 -7 -80 -5 -39 -4 -46 5 -32 6 9 8 21 5 27
-3 5 -2 21 1 37 6 24 8 25 14 8 5 -13 7 -5 8 25 0 31 -2 39 -8 25 l-7 -20 -5
20 c-4 14 -6 11 -6 -10z"/>
<path d="M49105 8669 c0 -27 3 -49 8 -49 9 0 9 71 -1 87 -4 6 -7 -11 -7 -38z"/>
<path d="M49070 8636 c0 -9 5 -16 10 -16 6 0 10 4 10 9 0 6 -4 13 -10 16 -5 3
-10 -1 -10 -9z"/>
<path d="M49201 8604 c0 -11 3 -14 6 -6 3 7 2 16 -1 19 -3 4 -6 -2 -5 -13z"/>
<path d="M49091 8565 l-3 -30 -9 25 c-7 21 -8 20 -4 -9 3 -18 5 -39 6 -45 1
-6 5 0 9 14 8 25 8 24 9 -5 3 -63 17 -52 17 12 0 45 -2 58 -6 38 l-7 -30 -5
30 -5 30 -2 -30z"/>
<path d="M49126 8451 c-2 -3 -3 -23 -2 -44 2 -29 0 -37 -11 -33 -8 3 -12 2 -9
-3 3 -5 -2 -15 -11 -22 -10 -9 -14 -9 -10 -2 5 7 -1 17 -13 23 -20 11 -21 10
-9 -12 11 -20 11 -22 -3 -10 -14 11 -15 8 -12 -28 5 -48 -2 -52 -15 -7 l-10
32 2 -30 c0 -17 -2 -36 -7 -43 -10 -17 5 -15 32 4 17 12 20 19 12 29 -12 15 3
29 32 30 10 0 17 4 15 8 -1 5 7 13 18 20 11 6 20 9 21 6 2 -7 35 24 45 42 8
15 6 17 -8 12 -15 -5 -16 -3 -5 8 6 7 12 16 12 19 0 8 -60 9 -64 1z m44 -15
c-4 -4 -16 -4 -26 2 -16 9 -14 10 8 9 15 -1 23 -6 18 -11z m-2 -34 c-2 -8 -11
-16 -21 -18 -9 -1 -15 2 -11 7 3 5 11 7 17 3 7 -3 4 1 -5 9 -20 16 -14 29 8
20 8 -3 14 -12 12 -21z"/>
<path d="M5888 8023 c7 -3 16 -2 19 1 4 3 -2 6 -13 5 -11 0 -14 -3 -6 -6z"/>
<path d="M5880 8001 c0 -7 -5 -9 -12 -5 -7 5 -8 3 -3 -5 5 -9 10 -10 18 -2 6
6 8 14 4 18 -4 3 -7 1 -7 -6z"/>
<path d="M5524 7946 c1 -8 5 -18 8 -22 4 -3 5 1 4 10 -1 8 -5 18 -8 22 -4 3
-5 -1 -4 -10z"/>
<path d="M5841 7945 c0 -5 3 -16 8 -23 7 -11 9 -10 14 3 4 9 3 14 -2 10 -5 -3
-12 1 -14 7 -3 7 -6 9 -6 3z"/>
<path d="M5557 7916 c-4 -11 -5 -21 -2 -24 3 -3 5 0 5 6 0 6 9 9 20 7 12 -2
18 0 15 6 -4 5 -10 7 -15 4 -4 -3 -10 0 -12 7 -3 7 -7 5 -11 -6z"/>
<path d="M5765 7889 c-4 -6 -5 -12 -2 -15 2 -3 7 2 10 11 7 17 1 20 -8 4z"/>
<path d="M5786 7883 c-6 -14 -5 -15 5 -6 7 7 10 15 7 18 -3 3 -9 -2 -12 -12z"/>
<path d="M5620 7880 c11 -7 11 -10 2 -10 -7 0 -10 -5 -6 -11 4 -8 9 -7 15 2 9
15 3 29 -14 29 -7 0 -6 -4 3 -10z"/>
<path d="M5830 7871 c0 -7 -5 -9 -12 -5 -7 5 -9 2 -5 -9 3 -9 1 -18 -6 -21 -9
-3 -9 -5 0 -5 14 -1 38 38 29 47 -3 3 -6 0 -6 -7z"/>
<path d="M5665 7850 c-4 -11 -11 -18 -16 -15 -5 4 -9 0 -9 -8 0 -8 6 -17 13
-20 8 -3 14 0 14 6 0 7 3 22 7 35 4 12 5 22 2 22 -2 0 -8 -9 -11 -20z"/>
<path d="M5765 7850 c-3 -5 -1 -10 4 -10 6 0 11 5 11 10 0 6 -2 10 -4 10 -3 0
-8 -4 -11 -10z"/>
<path d="M5373 7835 c0 -8 4 -12 9 -9 5 3 6 10 3 15 -9 13 -12 11 -12 -6z"/>
<path d="M5600 7846 c0 -2 8 -10 18 -17 15 -13 16 -12 3 4 -13 16 -21 21 -21
13z"/>
<path d="M5405 7790 c10 -11 20 -18 23 -16 5 6 -23 36 -34 36 -4 0 1 -9 11
-20z"/>
<path d="M5767 7804 c-3 -3 -3 -13 0 -22 4 -15 3 -15 -10 1 -15 18 -47 23 -47
7 0 -5 9 -10 19 -10 13 0 21 -8 23 -22 2 -13 7 -21 13 -18 5 3 8 11 7 19 -2 7
1 10 7 6 7 -4 8 0 4 11 -4 12 -3 15 5 10 8 -5 10 -2 6 8 -6 17 -16 20 -27 10z"/>
<path d="M5380 7781 c0 -10 19 -25 25 -20 1 2 -3 10 -11 17 -8 7 -14 8 -14 3z"/>
<path d="M5664 7778 c-4 -6 -3 -8 3 -5 13 8 37 -18 29 -32 -3 -5 2 -8 11 -7
10 2 21 -2 25 -8 5 -8 8 -7 8 2 0 15 -44 62 -59 62 -5 0 -13 -5 -17 -12z"/>
<path d="M5441 7756 c-8 -10 -9 -16 -1 -21 6 -4 9 -1 8 7 -2 7 3 12 10 10 8
-1 11 2 7 8 -8 13 -10 13 -24 -4z"/>
<path d="M5485 7710 c10 -11 20 -20 22 -20 2 0 -2 9 -9 20 -7 11 -17 20 -22
20 -5 0 -1 -9 9 -20z"/>
<path d="M5460 7701 c0 -10 19 -25 25 -20 1 2 -3 10 -11 17 -8 7 -14 8 -14 3z"/>
<path d="M5720 7705 c0 -7 30 -13 34 -7 3 4 -4 9 -15 9 -10 1 -19 0 -19 -2z"/>
<path d="M5542 7661 c7 -9 13 -18 15 -20 1 -2 1 5 0 16 0 11 -7 20 -14 20 -10
0 -10 -4 -1 -16z"/>
<path d="M35938 7423 c12 -2 32 -2 45 0 12 2 2 4 -23 4 -25 0 -35 -2 -22 -4z"/>
<path d="M35600 7375 c0 -8 7 -15 15 -15 8 0 15 4 15 9 0 5 -7 11 -15 15 -9 3
-15 0 -15 -9z"/>
<path d="M4501 6839 c12 -24 28 -24 46 -1 14 16 14 16 9 -2 -5 -15 -4 -17 8
-7 11 9 15 9 19 -1 3 -10 7 -10 17 -1 14 13 -14 25 -72 28 -34 2 -36 1 -27
-16z m29 1 c0 -5 -2 -10 -4 -10 -3 0 -8 5 -11 10 -3 6 -1 10 4 10 6 0 11 -4
11 -10z"/>
<path d="M4410 6839 c0 -5 5 -7 10 -4 6 3 10 8 10 11 0 2 -4 4 -10 4 -5 0 -10
-5 -10 -11z"/>
<path d="M35726 6007 c3 -10 9 -15 12 -12 3 3 0 11 -7 18 -10 9 -11 8 -5 -6z"/>
<path d="M35640 5926 c0 -9 6 -13 14 -10 9 4 16 -3 19 -18 4 -23 4 -23 6 -1 0
13 -7 27 -19 33 -16 8 -20 8 -20 -4z"/>
<path d="M35605 5881 c-10 -16 -23 -27 -27 -25 -7 5 -12 -12 -5 -19 6 -6 -29
-34 -37 -29 -5 3 -6 1 -3 -4 3 -6 -14 -27 -39 -49 -24 -22 -44 -43 -44 -47 0
-5 -15 -23 -32 -41 -37 -36 -125 -139 -148 -171 -8 -12 -25 -32 -37 -47 -13
-14 -49 -59 -80 -101 -32 -41 -85 -111 -118 -154 -218 -284 -468 -667 -711
-1088 l-22 -38 40 -84 c21 -46 56 -137 77 -201 l39 -117 27 55 c157 309 472
817 732 1177 57 79 103 147 103 152 0 4 4 10 9 12 19 7 121 150 115 160 -4 6
-3 8 4 5 5 -4 41 32 81 82 39 48 76 93 83 98 12 9 85 -3 246 -42 18 -4 22 -2
16 7 -6 10 -5 10 7 1 23 -18 89 -28 89 -12 0 8 5 6 13 -5 10 -13 29 -18 80
-19 37 -1 67 -6 67 -10 0 -4 17 -8 38 -7 20 0 53 -2 72 -5 19 -3 73 -7 120 -9
47 -3 92 -6 99 -8 7 -2 15 7 17 20 3 20 0 22 -34 22 -21 0 -47 -7 -59 -15 -12
-8 -27 -13 -35 -10 -7 2 -26 7 -42 9 -16 3 -31 7 -33 10 -8 7 58 0 80 -9 10
-4 17 -3 17 4 0 6 7 11 15 11 10 0 15 10 15 30 0 28 -2 30 -40 30 -22 0 -40 5
-40 10 0 6 18 10 40 10 22 0 40 5 40 10 0 6 -18 10 -40 10 -22 0 -40 -4 -40
-10 0 -5 -18 -10 -40 -10 -38 0 -40 2 -40 30 0 28 -2 30 -40 30 -38 0 -40 2
-40 30 0 28 -2 30 -40 30 -22 0 -40 5 -40 10 0 6 -18 10 -40 10 -38 0 -40 2
-40 30 0 28 -2 30 -40 30 -22 0 -40 5 -40 10 0 6 -18 10 -40 10 -38 0 -40 2
-40 30 0 28 -2 30 -40 30 -33 0 -40 3 -40 20 0 17 -7 20 -40 20 -38 0 -40 2
-40 30 0 28 -2 30 -42 31 -24 1 -49 1 -55 0 -7 -1 -13 3 -13 9 0 5 8 10 18 11
10 0 12 3 4 6 -6 2 -10 9 -7 13 3 5 12 7 20 3 17 -6 45 13 45 30 0 7 -4 7 -12
-1 -7 -7 -19 -12 -27 -12 -11 0 -11 3 3 13 11 8 17 19 15 25 -2 7 -13 -1 -24
-17z m-5 -95 c0 -2 -7 -9 -15 -16 -13 -11 -14 -10 -9 4 5 14 24 23 24 12z
m-47 -13 c-7 -2 -13 -12 -13 -20 0 -10 -6 -13 -16 -9 -12 4 -15 2 -10 -9 3 -9
-3 -24 -13 -34 -11 -11 -16 -22 -13 -26 4 -3 -2 -3 -12 1 -15 6 -17 4 -11 -6
5 -8 4 -11 -3 -7 -5 4 -8 16 -5 28 4 16 8 17 14 7 7 -10 9 -11 9 0 0 7 4 11 9
8 5 -3 11 1 15 9 3 8 0 15 -7 15 -7 0 1 12 16 25 15 14 33 25 40 24 9 0 9 -2
0 -6z m-36 -98 c0 -8 -4 -15 -9 -15 -10 0 -11 14 -1 23 9 10 10 9 10 -8z
m-116 -58 c-6 -8 -9 -16 -6 -19 3 -2 -2 -5 -10 -5 -20 0 -19 7 3 23 22 17 27
17 13 1z m474 -207 c-3 -5 -12 -10 -18 -10 -7 0 -6 4 3 10 19 12 23 12 15 0z
m85 -16 c0 -2 -7 -4 -15 -4 -8 0 -15 4 -15 10 0 5 7 7 15 4 8 -4 15 -8 15 -10z
m34 0 c3 -8 2 -12 -4 -9 -6 3 -10 10 -10 16 0 14 7 11 14 -7z m441 -74 c3 -6
-1 -7 -9 -4 -18 7 -21 14 -7 14 6 0 13 -4 16 -10z"/>
<path d="M35655 5849 c-4 -6 -17 -14 -29 -19 -21 -9 -21 -9 0 -9 11 -1 29 8
39 19 10 11 13 20 7 20 -6 0 -14 -5 -17 -11z"/>
<path d="M27140 5790 c-9 -6 -10 -10 -3 -10 6 0 15 5 18 10 8 12 4 12 -15 0z"/>
<path d="M27047 5763 c-3 -5 5 -8 18 -8 13 0 21 3 18 8 -2 4 -10 7 -18 7 -8 0
-16 -3 -18 -7z"/>
<path d="M26897 5700 c-4 -15 -11 -21 -21 -17 -9 4 -16 1 -16 -6 0 -17 92 -16
97 1 3 6 0 12 -7 12 -6 0 -8 -5 -4 -12 5 -8 2 -9 -10 -5 -10 4 -20 7 -22 7 -3
0 -3 4 0 8 2 4 1 14 -3 21 -6 9 -10 7 -14 -9z"/>
<path d="M26940 5710 c-9 -6 -10 -10 -3 -10 6 0 15 5 18 10 8 12 4 12 -15 0z"/>
<path d="M9490 5656 c0 -2 8 -10 18 -17 15 -13 16 -12 3 4 -13 16 -21 21 -21
13z"/>
<path d="M9604 5617 c1 -11 8 -22 16 -24 13 -4 13 -3 0 6 -12 9 -13 13 -2 20
11 7 11 9 -1 14 -10 4 -14 -1 -13 -16z"/>
<path d="M9706 5591 c-6 -10 24 -25 32 -16 3 3 0 5 -7 5 -7 0 -9 5 -6 10 3 6
2 10 -4 10 -5 0 -12 -4 -15 -9z"/>
<path d="M9843 5555 c0 -7 6 -11 14 -8 8 3 13 -2 13 -12 0 -12 -5 -15 -17 -11
-10 4 -14 4 -11 0 4 -4 3 -15 -3 -25 -7 -15 -6 -17 6 -13 8 4 23 0 33 -7 15
-13 16 -12 3 4 -13 17 -7 23 22 18 4 0 7 3 7 9 0 5 7 7 16 3 11 -4 12 -8 4
-13 -21 -13 -2 -28 35 -27 19 1 32 3 30 5 -2 3 0 13 5 22 7 14 5 20 -7 25 -10
3 -19 1 -21 -4 -2 -6 -8 -11 -13 -11 -4 0 -6 7 -3 15 4 8 1 15 -6 15 -6 0 -8
-4 -5 -10 3 -5 -1 -10 -10 -10 -9 0 -14 4 -11 9 3 5 -1 12 -10 15 -11 4 -15 2
-11 -8 6 -14 -21 -32 -31 -21 -3 3 0 5 6 5 17 0 -2 43 -20 46 -8 1 -15 -4 -15
-11z m144 -61 c-3 -3 -12 -4 -19 -1 -8 3 -5 6 6 6 11 1 17 -2 13 -5z"/>
<path d="M9912 5455 c-3 -5 -2 -7 3 -3 4 4 25 -2 46 -12 43 -23 59 -25 59 -9
0 6 -7 8 -16 5 -10 -4 -18 0 -21 12 -3 14 -13 19 -35 18 -16 -1 -32 -5 -36
-11z"/>
<path d="M36487 5327 c-10 -26 8 -33 83 -34 54 0 62 1 30 5 -42 5 -39 6 45 18
l90 13 -87 -6 c-60 -3 -88 -1 -88 6 0 6 -10 11 -22 10 -23 0 -23 0 1 -10 17
-7 21 -13 14 -20 -12 -12 -56 -2 -48 11 3 5 1 11 -4 14 -5 3 -11 0 -14 -7z"/>
<path d="M36810 5315 c-7 -8 -9 -15 -6 -15 4 0 14 7 22 15 9 8 11 15 6 15 -5
0 -15 -7 -22 -15z"/>
<path d="M9832 5234 c8 -9 26 -14 39 -12 20 2 18 5 -15 15 -36 11 -38 11 -24
-3z"/>
<path d="M9820 5205 c7 -9 15 -13 17 -11 7 7 -7 26 -19 26 -6 0 -6 -6 2 -15z"/>
<path d="M9864 5195 c8 -8 21 -15 28 -15 8 1 6 6 -6 15 -26 20 -42 19 -22 0z"/>
<path d="M6580 5050 c0 -5 5 -10 11 -10 5 0 7 5 4 10 -3 6 -8 10 -11 10 -2 0
-4 -4 -4 -10z"/>
<path d="M32323 4920 c-1 -11 3 -23 9 -26 7 -5 9 -1 5 9 -3 10 -2 17 4 17 6 0
7 5 4 10 -10 16 -21 12 -22 -10z"/>
<path d="M32408 4933 c7 -3 16 -2 19 1 4 3 -2 6 -13 5 -11 0 -14 -3 -6 -6z"/>
<path d="M6326 4903 c-6 -14 -5 -15 5 -6 7 7 10 15 7 18 -3 3 -9 -2 -12 -12z"/>
<path d="M6387 4749 c7 -7 15 -10 18 -7 3 3 -2 9 -12 12 -14 6 -15 5 -6 -5z"/>
<path d="M32329 4748 c-10 -19 -3 -44 12 -45 12 -1 16 3 12 14 -5 12 -3 14 7
8 8 -5 11 -4 6 3 -4 6 -14 8 -23 5 -11 -4 -14 -3 -9 5 4 7 5 12 2 12 -3 0 -7
-1 -7 -2z"/>
<path d="M6330 4736 c0 -2 8 -10 18 -17 15 -13 16 -12 3 4 -13 16 -21 21 -21
13z"/>
<path d="M32403 4713 c15 -2 39 -2 55 0 15 2 2 4 -28 4 -30 0 -43 -2 -27 -4z"/>
<path d="M30090 4190 c-8 -5 -11 -12 -7 -16 4 -4 13 -2 19 4 15 15 7 24 -12
12z"/>
<path d="M30005 4129 c-11 -16 -1 -19 13 -3 7 8 8 14 3 14 -5 0 -13 -5 -16
-11z"/>
<path d="M34929 3533 c-13 -17 -13 -17 6 -3 11 8 22 16 24 17 2 2 0 3 -6 3 -6
0 -17 -8 -24 -17z"/>
<path d="M34816 3532 c-2 -4 -19 -9 -36 -10 -17 -1 -48 -10 -68 -19 -21 -9
-43 -15 -50 -14 -8 1 -20 -3 -27 -9 -8 -7 -20 -8 -26 -4 -7 4 -9 3 -6 -3 4 -6
0 -14 -9 -17 -8 -3 -13 -2 -10 3 4 5 -3 7 -14 4 -11 -3 -20 -9 -20 -13 0 -4
-6 -8 -12 -7 -51 2 -51 1 -45 -74 7 -88 -7 -257 -34 -408 -55 -304 -200 -673
-392 -994 -42 -71 -77 -131 -77 -133 0 -2 201 -4 448 -3 345 0 441 3 422 12
-23 10 -19 12 40 17 58 6 60 7 20 9 -35 2 -41 4 -25 11 13 6 3 7 -30 4 -34 -3
-43 -2 -30 4 20 9 20 21 25 813 5 784 5 804 24 804 11 0 21 7 23 15 4 12 3 13
-5 1 -5 -7 -15 -10 -22 -6 -9 6 -9 9 1 16 11 7 10 9 -5 9 -12 0 -16 -5 -12
-16 5 -12 1 -14 -15 -9 -13 4 -19 3 -16 -2 7 -12 -30 -10 -40 2 -5 4 -3 5 3 2
6 -4 20 0 30 8 10 8 14 15 7 15 -6 0 -14 -4 -17 -8z m-96 -52 c0 -5 -5 -10
-11 -10 -5 0 -7 5 -4 10 3 6 8 10 11 10 2 0 4 -4 4 -10z m-7 -37 c-7 -2 -19
-2 -25 0 -7 3 -2 5 12 5 14 0 19 -2 13 -5z"/>
<path d="M35015 3530 c-3 -6 1 -7 9 -4 18 7 21 14 7 14 -6 0 -13 -4 -16 -10z"/>
<path d="M9640 2270 c0 -5 5 -10 11 -10 5 0 7 5 4 10 -3 6 -8 10 -11 10 -2 0
-4 -4 -4 -10z"/>
<path d="M9610 2261 c0 -10 29 -36 34 -30 1 2 -6 12 -16 22 -10 9 -18 13 -18
8z"/>
<path d="M9728 2118 c5 -5 16 -8 23 -6 8 3 3 7 -10 11 -17 4 -21 3 -13 -5z"/>
</g>
</svg>
